<?xml version="1.0" encoding="UTF-8" standalone="no"?>
<!-- Created with Inkscape (http://www.inkscape.org/) -->

<svg
   xmlns:dc="http://purl.org/dc/elements/1.1/"
   xmlns:cc="http://creativecommons.org/ns#"
   xmlns:rdf="http://www.w3.org/1999/02/22-rdf-syntax-ns#"
   xmlns:svg="http://www.w3.org/2000/svg"
   xmlns="http://www.w3.org/2000/svg"
   xmlns:sodipodi="http://sodipodi.sourceforge.net/DTD/sodipodi-0.dtd"
   xmlns:inkscape="http://www.inkscape.org/namespaces/inkscape"
   width="121.95"
   height="67.57"
   id="svg2"
   version="1.1"
   inkscape:version="0.47 r22583"
   sodipodi:docname="New document 1">
  <defs
     id="defs4">
    <inkscape:perspective
       sodipodi:type="inkscape:persp3d"
       inkscape:vp_x="0 : 526.18109 : 1"
       inkscape:vp_y="0 : 1000 : 0"
       inkscape:vp_z="744.09448 : 526.18109 : 1"
       inkscape:persp3d-origin="372.04724 : 350.78739 : 1"
       id="perspective10" />
    <clipPath
       id="clipPath3666"
       clipPathUnits="userSpaceOnUse">
      <path
         id="path3668"
         d="m 27,158.143 117,0 0,159.857 -117,0 0,-159.857 z" />
    </clipPath>
    <clipPath
       id="clipPath3658"
       clipPathUnits="userSpaceOnUse">
      <path
         id="path3660"
         d="m 176.431,36.552 362.201,0 0,64.448 -362.201,0 0,-64.448 z" />
    </clipPath>
    <clipPath
       id="clipPath3526"
       clipPathUnits="userSpaceOnUse">
      <path
         id="path3528"
         d="m 176.431,36.552 362.201,0 0,64.448 -362.201,0 0,-64.448 z" />
    </clipPath>
    <clipPath
       id="clipPath3286"
       clipPathUnits="userSpaceOnUse">
      <path
         id="path3288"
         d="m 176.431,36.552 362.201,0 0,64.448 -362.201,0 0,-64.448 z" />
    </clipPath>
    <clipPath
       id="clipPath3274"
       clipPathUnits="userSpaceOnUse">
      <path
         id="path3276"
         d="m 27,9 117,0 0,149.143 -117,0 L 27,9 z" />
    </clipPath>
    <clipPath
       id="clipPath3262"
       clipPathUnits="userSpaceOnUse">
      <path
         id="path3264"
         d="m 27,475.714 117,0 0,156.857 -117,0 0,-156.857 z" />
    </clipPath>
    <clipPath
       id="clipPath3250"
       clipPathUnits="userSpaceOnUse">
      <path
         id="path3252"
         d="m 27,632.571 117,0 0,151.199 -117,0 0,-151.199 z" />
    </clipPath>
    <clipPath
       id="clipPath3238"
       clipPathUnits="userSpaceOnUse">
      <path
         id="path3240"
         d="M 0,0 612,0 612,792 0,792 0,0 z" />
    </clipPath>
    <clipPath
       id="clipPath2846"
       clipPathUnits="userSpaceOnUse">
      <path
         id="path2848"
         d="m 162.105,297.353 412.569,0 0,187.982 -412.569,0 0,-187.982 z" />
    </clipPath>
    <clipPath
       id="clipPath2834"
       clipPathUnits="userSpaceOnUse">
      <path
         id="path2836"
         d="m 27,318 117,0 0,157.714 -117,0 L 27,318 z" />
    </clipPath>
    <inkscape:perspective
       id="perspective2824"
       inkscape:persp3d-origin="0.5 : 0.33333333 : 1"
       inkscape:vp_z="1 : 0.5 : 1"
       inkscape:vp_y="0 : 1000 : 0"
       inkscape:vp_x="0 : 0.5 : 1"
       sodipodi:type="inkscape:persp3d" />
  </defs>
  <sodipodi:namedview
     id="base"
     pagecolor="#ffffff"
     bordercolor="#666666"
     borderopacity="1.0"
     inkscape:pageopacity="0.0"
     inkscape:pageshadow="2"
     inkscape:zoom="1.0165441"
     inkscape:cx="15.891044"
     inkscape:cy="22.727111"
     inkscape:document-units="px"
     inkscape:current-layer="layer1"
     showgrid="false"
     inkscape:window-width="1680"
     inkscape:window-height="1000"
     inkscape:window-x="-8"
     inkscape:window-y="-8"
     inkscape:window-maximized="1" />
  <metadata
     id="metadata7">
    <rdf:RDF>
      <cc:Work
         rdf:about="">
        <dc:format>image/svg+xml</dc:format>
        <dc:type
           rdf:resource="http://purl.org/dc/dcmitype/StillImage" />
        <dc:title></dc:title>
      </cc:Work>
    </rdf:RDF>
  </metadata>
  <g
     inkscape:label="Layer 1"
     inkscape:groupmode="layer"
     id="layer1"
     transform="translate(-343.14812,-488.87076)">
    <g
       id="g3282"
       transform="matrix(1.25,0,0,-1.25,-2.3823092,1027.8434)">
      <g
         id="g3284"
         clip-path="url(#clipPath3286)">
        <g
           id="g3290"
           transform="translate(282.957,169.56419)">
          <path
             d="M 0,0 C 1.797,-0.15 4.2,-0.692 4.924,-2.622 4.931,-2.642 4.94,-2.655 4.95,-2.674 l 0,8.407 C 3.518,4.957 1.925,4.553 0.156,4.822 c -3.743,0.024 -5.562,4.199 -7.038,7.548 0.134,1.077 -1.004,2.086 -1.152,3.112 -2.153,0.07 -2.45,-2.406 -3.366,-3.904 -1.279,-1.387 -1.314,-3.218 -1.949,-4.867 0.684,-1.853 0.216,-3.816 0.503,-5.682 -0.313,-1.879 -0.547,-3.719 -0.616,-5.668 4.132,-2.845 8.03,-7.326 13.78,-6.382 2.02,0.366 3.138,1.872 3.289,3.67 -0.593,1.498 -0.81,3.796 -2.569,4.07 -1.241,0.249 -2.551,0.055 -3.442,-0.925 -0.29,-1.154 0.69,-2.05 -0.401,-3.032 -0.276,-0.046 -0.476,-0.054 -0.749,-0.296 -0.831,1.372 -1.497,2.626 -0.936,4.035 0.502,2.087 2.912,2.86 4.49,3.499"
             style="fill:#0491d1;fill-opacity:1;fill-rule:nonzero;stroke:none"
             id="path3292" />
        </g>
        <g
           id="g3294"
           transform="translate(259.81619,165.1171)">
          <path
             d="m 0,0 c 0.223,-0.99 1.102,-1.123 1.793,-1.665 1.067,-1.249 1.557,-3.304 2.86,-4.432 1.398,1.355 0.6,3.043 1.156,4.652 1.094,4.01 0.857,8.624 0.559,12.595 -2.21,3.968 -1.082,9.808 -5.918,12.08 -1.446,1.311 -3.03,2.077 -4.685,2.588 l 0,-23.157 C -3.898,2.554 -3.589,2.417 -3.361,2.145 -1.532,2.314 -1.708,-0.198 0,0"
             style="fill:#0491d1;fill-opacity:1;fill-rule:nonzero;stroke:none"
             id="path3296" />
        </g>
        <g
           id="g3298"
           transform="translate(262.6595,150.101)">
          <path
             d="m 0,0 c -0.906,1.328 1.278,3.093 -0.304,4.37 0.219,2.236 -1.857,4.056 -2.513,6.429 -1.456,0.837 -2.254,2.531 -3.904,3.17 l -0.358,0.674 0,-27.07 10.949,0 C 1.043,-8.84 -0.661,-4.255 0,0"
             style="fill:#0491d1;fill-opacity:1;fill-rule:nonzero;stroke:none"
             id="path3300" />
        </g>
        <g
           id="g3302"
           transform="translate(280.48911,155.2502)">
          <path
             d="M 0,0 C -4.861,0.232 -7.861,3.783 -11.385,6.239 L -11.62,6.118 c -0.096,-5.696 -4.541,-10.985 -2.093,-16.539 0.412,-2.448 2.224,-5.508 4.245,-7.156 l 16.886,0 0,19.985 C 5.857,-0.053 2.332,-0.214 0,0"
             style="fill:#0491d1;fill-opacity:1;fill-rule:nonzero;stroke:none"
             id="path3304" />
        </g>
        <g
           id="g3306"
           transform="translate(275.71809,188.0528)">
          <path
             d="M 0,0 C -0.239,0.435 -0.379,1.24 0.335,1.382 2.949,1.141 5.372,2.136 7.798,2.845 8.085,3.325 7.612,3.706 7.37,4.132 5.188,5.939 3.188,2.425 1.002,3.854 1.194,4.902 1.149,5.991 2.003,6.75 4.43,6.892 6.617,7.649 8.945,8.55 8.945,9.212 8.42,9.931 7.807,10.167 6.192,10.545 5,8.983 3.719,9.694 c 0.428,1.094 0.812,2.332 1.95,2.997 1.333,0.187 2.807,0.233 4.09,0.658 0.38,0.573 -0.523,1.003 -0.9,1.286 l -1.477,0.049 c 1.049,1.903 3.142,3.042 4.807,4.321 0.096,0.572 -0.331,1.189 -1.045,0.857 C 8.436,20.295 7.386,17.825 5.34,16.634 5.297,17.729 4.871,19.107 4.062,19.917 2.92,20.205 3.444,18.918 2.919,18.491 2.681,17.017 3.441,15.495 3.293,14.024 2.152,12.981 1.582,11.647 0.438,10.505 c -1.473,1.002 -1.091,3.57 -2.942,4.38 -0.382,-1.331 0.14,-2.422 0.518,-3.756 C -1.843,9.465 1.005,7.94 -1.373,6.328 -1.279,5.753 -1.567,5.284 -1.943,4.902 -3.796,6.093 -3.036,8.375 -4.412,9.754 -5.743,9.946 -4.934,8.566 -5.031,7.994 -4.602,7.759 -4.889,7.474 -4.937,7.234 -4.653,5.619 -3.611,4.378 -2.516,3.096 -2.661,2.381 -2.899,1.765 -3.377,1.196 L 0,0 z"
             style="fill:#0491d1;fill-opacity:1;fill-rule:nonzero;stroke:none"
             id="path3308" />
        </g>
        <g
           id="g3310"
           transform="translate(229.48441,227.49229)">
          <path
             d="m 0,0 c 0.365,0.861 0.646,1.821 0.97,2.753 0.335,0.996 0.721,1.967 1.293,2.782 0.294,0.43 0.613,0.844 0.952,1.237 0.392,0.364 0.831,0.64 1.325,0.84 1.231,0.582 2.507,0.778 3.86,0.87 1.269,0.083 2.541,-0.02 3.807,-0.125 5.43,-0.456 8.162,-5.416 7.597,-10.558 -0.092,-0.825 -0.29,-1.735 -0.54,-2.529 -0.222,-0.694 -0.465,-1.462 -0.766,-2.13 -0.977,-2.155 -2.616,-4.321 -4.851,-5.281 -0.396,-0.171 -0.867,-0.396 -1.287,-0.506 -0.496,-0.127 -1.104,-0.122 -1.611,-0.122 -1.056,0 -2.055,0.068 -3.084,0.316 -0.844,0.202 -1.688,0.854 -2.33,1.405 C 4.568,-10.39 3.882,-9.652 3.12,-8.989 2.568,-8.516 2.121,-7.937 1.622,-7.41 1.229,-6.991 0.91,-6.377 0.694,-5.839 -0.052,-4.007 -0.811,-1.928 0,0 m -8.438,12.913 c 0.794,-2.681 1.592,-5.353 2.064,-8.057 1.057,-6.067 1.421,-13.036 5.804,-17.83 3.146,-3.449 8.936,-4.574 13.382,-3.578 3.258,0.732 6.25,2.248 9.113,3.995 l 0,51.024 -32.327,0 0,-17.885 c 0.462,-2.579 1.209,-5.127 1.964,-7.669"
             style="fill:#8b2c9a;fill-opacity:1;fill-rule:nonzero;stroke:none"
             id="path3312" />
        </g>
        <g
           id="g3314"
           transform="translate(244.0811,200.32111)">
          <path
             d="m 0,0 c -0.246,-0.24 -0.502,-0.399 -0.736,-0.67 -0.489,-0.555 -0.918,-1.101 -1.356,-1.698 -1.834,-2.539 -2.606,-6.399 -3.568,-9.344 -1.533,-4.689 -3.435,-9.5 -3.923,-14.419 -0.192,-1.94 -0.373,-3.849 -0.089,-5.791 0.316,-2.163 1.048,-4.216 1.816,-6.257 2.15,-5.738 5.811,-10.714 9.64,-15.431 1.771,-2.181 3.536,-4.501 5.544,-6.521 l 0,64.97 C 4.679,3.363 1.945,1.876 0,0"
             style="fill:#8c2b99;fill-opacity:1;fill-rule:nonzero;stroke:none"
             id="path3316" />
        </g>
        <g
           id="g3318"
           transform="translate(223.515,213.0117)">
          <path
             d="m 0,0 c -0.95,5.299 -2.554,10.97 -4.433,16.307 l 0,-37.457 C 0.53,-15.179 1.345,-7.49 0,0"
             style="fill:#8c2b99;fill-opacity:1;fill-rule:nonzero;stroke:none"
             id="path3320" />
        </g>
        <g
           id="g3322"
           transform="translate(232.27811,146.71741)">
          <path
             d="m 0,0 c -2.06,3.144 -3.512,6.589 -5.491,9.845 -2.326,3.83 -3.631,8.293 -5.379,12.405 -0.134,0.321 -0.464,0.833 -0.714,1.077 -0.4,0.404 -1.008,0.587 -1.612,0.69 l 0,-33.061 19.428,0 C 4.187,-5.994 2.004,-3.061 0,0"
             style="fill:#8c2b99;fill-opacity:1;fill-rule:nonzero;stroke:none"
             id="path3324" />
        </g>
        <g
           id="g3326"
           transform="translate(229.26151,195.36659)">
          <path
             d="M 0,0 C 0.151,0.035 0.334,-0.085 0.496,0.066 0.448,1.59 -0.834,2.421 -0.746,3.861 l 0.535,0.624 C 0.431,3.872 0.778,2.807 1.484,2.091 1.566,1.715 1.567,1.319 1.891,1.11 2.822,2.65 2.448,4.577 3.438,6.211 4.312,7.657 4.396,9.292 5.221,10.768 5.504,11.104 5.754,10.688 6.057,10.551 5.436,7.189 4.572,3.853 3.515,0.514 5.392,1.311 6.93,2.782 8.917,3.443 9.109,3.643 9.409,3.901 9.685,3.53 9.927,3.501 10.021,3.246 9.949,3.032 8.644,1.217 6.66,0.163 4.62,-0.787 L 4.353,-1.196 C 5.955,-2.43 8.053,-2.295 9.806,-3.303 9.888,-3.678 9.711,-4.149 9.349,-4.304 8.459,-4.574 7.655,-3.921 6.883,-4.005 6.712,-3.568 6.111,-3.893 5.761,-3.733 5.229,-3.454 4.683,-3.293 4.064,-3.348 3.778,-4.586 5.801,-5.575 4.484,-6.604 3.311,-5.913 2.874,-4.783 2.226,-3.782 1.38,-4.984 1.595,-6.554 1.102,-7.92 0.919,-8.903 -0.175,-9.689 0.171,-10.759 c -0.478,-0.336 -0.429,-1.666 -1.393,-1.042 -0.186,0.506 -0.659,0.879 -0.229,1.448 0.685,0.854 0.37,1.967 1.127,2.838 -0.274,1.282 0.513,2.392 0.555,3.666 -0.949,0.03 -1.284,-0.989 -2.223,-1.028 -1.068,-1.449 -3.094,-1.568 -4.546,-2.312 -0.377,-0.079 -0.912,0.202 -0.963,0.621 1.317,2.33 3.999,2.865 6.02,4.282 0.681,-0.051 0.916,0.512 1.473,0.669 -0.907,0.911 -2.319,0.528 -3.414,1.044 C -4.264,0.233 -5.381,0.113 -5.383,1.409 -3.656,1.069 -1.763,0.689 0,0"
             style="fill:#8c2b99;fill-opacity:1;fill-rule:nonzero;stroke:none"
             id="path3328" />
        </g>
        <g
           id="g3330"
           transform="translate(255.5807,265.95911)">
          <path
             d="m 0,0 0,-71.856 c 4.555,-1.952 9.629,-4.122 11.62,-9.13 0.218,-0.788 0.315,-1.541 0.813,-2.284 1.34,0.51 1.404,2.659 2.461,3.52 -0.031,1.198 -1.795,1.67 -2.804,2.243 -3.543,3.055 -6.593,8.789 -6.473,13.493 0.533,4.113 0.663,8.421 4.052,11.531 0.952,2.925 3.154,4.669 5.808,5.8 -2.235,3.605 -2.051,8.489 -2.809,12.849 -0.998,-1.202 -3.085,-0.923 -4.586,-0.981 -2.099,1.227 -3.846,2.972 -4.762,5.103 -1.583,3.424 -0.859,7.534 -0.717,11.115 1.428,3.386 0.122,8.02 -0.372,11.624 l 1.651,0.152 c 1.213,-1.077 2.718,-1.097 4.18,-1.432 2.982,-1.389 6.264,-2.588 8.716,-5.052 1.048,-0.141 1.155,-1.324 2.275,-1.455 2.082,-2.74 4.374,-5.225 5.227,-8.394 0.9,-2.853 1.805,-6.574 1.051,-9.577 0.171,-1.808 -1.202,-3.287 -2.432,-4.509 -1.681,-0.714 -3.56,-0.094 -4.993,0.803 -0.781,0.718 -1.583,1.678 -2.341,2.158 0.623,-3.38 -0.41,-8.683 2.239,-11.576 2.636,0.77 5.467,1.15 7.864,1.578 0.478,-0.148 0.968,-0.49 1.39,0.035 1.815,-0.49 3.531,0.078 5.268,-0.373 L 32.326,0 0,0 z"
             style="fill:#0491d1;fill-opacity:1;fill-rule:nonzero;stroke:none"
             id="path3332" />
        </g>
        <g
           id="g3334"
           transform="translate(341.209,176.3078)">
          <path
             d="m 0,0 c -0.966,-2.617 -3.44,-4.566 -7.421,-5.853 -1.625,-0.526 -3.614,-0.785 -5.972,-0.785 -2.863,0 -5.451,0.514 -7.77,1.535 -0.008,0.095 -0.014,0.188 -0.022,0.284 l -1.157,15.337 c 0.726,0.195 1.589,0.318 2.599,0.358 l 9.057,0.569 3.717,0.481 c 0.929,0 1.703,-0.146 2.324,-0.432 L -2.091,10.28 C -0.933,9.565 -0.155,8.768 0.233,7.891 0.617,7.009 0.81,5.851 0.81,4.426 0.81,2.903 0.542,1.428 0,0 m 4.132,13.704 c -2.787,3.595 -6.169,5.675 -10.146,6.243 l -17.041,0 0,0.005 -7.765,0.356 -2.221,-58.206 12.935,1.776 -0.36,9.156 c -0.08,2.838 -0.145,5.444 -0.2,7.81 -0.025,0.894 -0.04,2.104 -0.04,3.616 l 0,0.035 c 0.101,-0.016 0.196,-0.034 0.302,-0.049 2.202,-0.379 4.153,-0.521 5.857,-0.423 l 4.755,0.238 4.235,0.496 c 2.861,0.662 5.507,1.96 7.945,3.904 3.324,2.598 5.183,5.46 5.569,8.584 0.191,1.04 0.288,1.796 0.288,2.268 L 8.302,1.36 C 8.453,5.806 7.065,9.922 4.132,13.704"
             style="fill:#2b317c;fill-opacity:1;fill-rule:nonzero;stroke:none"
             id="path3336" />
        </g>
        <g
           id="g3338"
           transform="translate(372.4762,137.3317)">
          <path
             d="m 0,0 0,56.087 13.065,3.197 -2.047,-48.613 12.548,1.699 c 3.411,0.472 6.972,1.917 10.692,4.329 l 0.29,-2.632 0.173,-3.621 C 34.8,9.024 34.683,7.392 34.373,5.544 34.144,4.121 33.717,2.868 33.096,1.777 L 0,0 z"
             style="fill:#2b317c;fill-opacity:1;fill-rule:nonzero;stroke:none"
             id="path3340" />
        </g>
        <g
           id="g3342"
           transform="translate(457.0737,166.7883)">
          <path
             d="m 0,0 c -0.269,1.373 -0.946,3.501 -2.034,6.383 -1.394,3.687 -2.654,6.521 -3.771,8.509 l -1.001,-2.69 -2.481,-7.437 -1.45,-4.041 5.169,0 1.743,0 c 0.806,0 1.408,-0.053 1.796,-0.159 C -0.752,0.455 -0.077,0.269 0,0 m -4.929,28.316 4.934,-9.065 2.962,-6.946 10.975,-26.423 4.357,-12.821 -8.018,-0.899 c -1.777,-0.197 -3.002,-0.3 -3.659,-0.3 -0.312,0 -0.483,0.026 -0.52,0.071 l -2.56,9.594 -2.375,9.738 -2.21,0 -5.512,-0.36 -3.252,0 -2.093,0.36 -1.916,-8.501 -2.147,-10.07 -8.13,-0.422 c -0.855,-0.052 -1.706,-0.103 -2.559,-0.15 -1.39,-0.092 -2.183,-0.26 -2.376,-0.5 l 2.152,5.53 8.298,25.678 c 0.194,0.615 0.644,1.822 1.334,3.616 0.581,1.278 1.493,3.5 2.733,6.667 l 4.706,12.696 c 1.045,2.757 2.067,4.138 3.073,4.138 0.62,0 1.221,-0.543 1.803,-1.631"
             style="fill:#2b317c;fill-opacity:1;fill-rule:nonzero;stroke:none"
             id="path3344" />
        </g>
        <g
           id="g3346"
           transform="translate(508.9922,172.8222)">
          <path
             d="M 0,0 -15.389,23.433 -2.208,21.304 5.924,4.272 16.026,22.375 28.914,24.153 7.891,-9.579 11.324,-33.375 -3.488,-36.924 0,0 z"
             style="fill:#2b317c;fill-opacity:1;fill-rule:nonzero;stroke:none"
             id="path3348" />
        </g>
        <g
           id="g3350"
           transform="translate(299.0807,265.5312)">
          <path
             d="m 0,0 c 3.305,-1.481 7.571,-2.197 12.809,-2.142 l 5.598,0.076 5.403,0.558 L 37.003,0 c 2.743,0 4.118,-3.487 4.118,-10.465 0,-4.246 -0.769,-6.369 -2.308,-6.369 l -0.96,0.457 c -0.469,0.408 -1.151,0.637 -2.048,0.687 l -2.949,0.24 -2.244,0 -1.408,0 c -0.472,-0.155 -0.791,-0.262 -0.963,-0.313 l -3.909,-0.628 c -1.198,-0.21 -2.007,-4.641 -2.432,-13.289 -0.132,-3.096 -0.194,-5.844 -0.194,-8.255 l 0,-8.415 0.478,-6.291 c 0.335,-4.665 0.872,-8.073 1.626,-10.222 l -3.728,-1.179 -1.736,-0.471 -1.477,-0.156 c -1.544,-0.158 -3.044,0.524 -4.501,2.041 -1.328,1.307 -1.929,5.943 -1.798,13.902 l 0,4.554 0.477,8.953 0.631,13.356 0.054,3.537 0.173,2.197 -13.255,-0.55 -1.673,0.158 c -0.559,0.052 -0.857,0.262 -0.9,0.631 l 0.516,0.628 c 0.855,1.048 1.242,3.015 1.157,5.9 l -0.132,5.276 c -0.083,2.622 0.432,4.064 1.547,4.327 L 0,0 z"
             style="fill:#2b317c;fill-opacity:1;fill-rule:nonzero;stroke:none"
             id="path3352" />
        </g>
        <g
           id="g3354"
           transform="translate(365.46761,255.71021)">
          <path
             d="m 0,0 -9.844,-0.629 c -0.986,-0.054 -2.125,-0.237 -3.412,-0.552 l 0.932,-16.886 c 2.742,-1.368 5.826,-2.052 9.257,-2.052 4.709,0 8.676,1.157 11.891,3.474 2.615,1.842 3.918,4.785 3.918,8.839 0,1.577 -0.213,2.853 -0.64,3.828 -0.434,0.971 -1.289,1.853 -2.58,2.644 L 6.697,0.006 C 6.007,0.32 5.148,0.48 4.119,0.48 L 0,0 z m -22.33,9.821 8.562,-0.359 18.916,0 C 9.568,8.83 13.32,6.526 16.409,2.537 c 3.26,-4.196 4.805,-8.76 4.633,-13.69 l -0.064,-2.044 c 0,-0.579 -0.105,-1.445 -0.316,-2.597 -0.304,-2.57 -1.804,-5.115 -4.507,-7.632 -1.246,-1.154 -3.114,-2.595 -5.601,-4.327 l 0.644,-2.045 1.029,-2.519 c 0.343,-0.788 1.247,-2.205 2.701,-4.253 1.287,-1.785 2.941,-4.406 4.956,-7.872 2.192,-3.778 3.712,-6.271 4.57,-7.475 0.473,-0.685 0.044,-1.208 -1.286,-1.578 -0.171,0 -0.579,-0.024 -1.222,-0.078 l -1.606,-0.079 -5.851,0.315 -6.88,0.239 c -0.346,1.994 -1.268,5.226 -2.769,9.692 l -2.312,6.855 -0.844,2.669 -1.544,3.584 -4.705,0 c -2.959,0 -5.34,0.165 -7.145,0.5 l 1.297,-22.896 -15.327,-2.755 3.41,65.27 z"
             style="fill:#2b317c;fill-opacity:1;fill-rule:nonzero;stroke:none"
             id="path3356" />
        </g>
        <g
           id="g3358"
           transform="translate(394.50841,234.24249)">
          <path
             d="m 0,0 c 0,4.712 -0.285,9.713 -0.849,15.006 -0.698,6.074 -1.611,10.943 -2.745,14.61 l 1.481,-0.394 1.93,-0.156 c 0.296,0 1.821,0.15 4.568,0.452 l 3.859,0.454 c 1.418,0 2.128,-0.448 2.128,-1.333 l -0.77,-2.83 C 8.87,23.142 8.399,20.369 8.187,17.49 L 7.738,11.52 7.546,4.927 c -0.174,-5.182 0.211,-11.513 1.158,-18.999 0.768,-6.28 1.965,-11.856 3.601,-16.721 -2.02,-1.206 -5.025,-2.07 -9.012,-2.592 -1.202,-0.157 -2.275,-0.235 -3.218,-0.235 -1.591,0 -2.621,0.128 -3.088,0.391 -0.685,0.16 -0.879,0.575 -0.581,1.258 2.658,5.97 3.906,14.27 3.731,24.901 L 0.093,-1.492 0,0 z"
             style="fill:#2b317c;fill-opacity:1;fill-rule:nonzero;stroke:none"
             id="path3360" />
        </g>
        <g
           id="g3362"
           transform="translate(447.5878,243.1142)">
          <path
             d="m 0,0 c -1.077,-2.873 -3.824,-5.014 -8.248,-6.423 -1.809,-0.574 -4.024,-0.86 -6.645,-0.86 -3.187,0 -6.071,0.566 -8.653,1.691 -0.005,0.065 -0.009,0.128 -0.013,0.194 l -1.274,16.954 c 0.82,0.229 1.801,0.372 2.955,0.414 l 10.035,0.626 4.127,0.48 c 1.028,0 1.885,-0.156 2.569,-0.468 l 2.835,-1.332 C -1.028,10.492 -0.173,9.617 0.26,8.653 0.689,7.687 0.904,6.421 0.904,4.853 0.904,3.182 0.601,1.565 0,0 m 4.569,15.143 c -3.088,3.981 -6.842,6.286 -11.257,6.914 l -19.245,0 0,-0.018 -8.236,0.378 -2.441,-64.43 14.372,1.965 -0.363,10.133 c -0.161,3.143 -0.292,6.022 -0.396,8.645 -0.057,0.996 -0.082,2.331 -0.082,4.007 0,0.03 -10e-4,0.06 -10e-4,0.09 0.115,-0.019 0.227,-0.039 0.348,-0.056 2.459,-0.423 4.624,-0.577 6.521,-0.473 l 5.286,0.239 4.715,0.551 c 3.179,0.736 6.129,2.172 8.835,4.321 3.694,2.882 5.763,6.049 6.194,9.508 0.217,1.152 0.324,1.989 0.324,2.511 l 0.061,2.045 c 0.17,4.922 -1.37,9.477 -4.635,13.67"
             style="fill:#2b317c;fill-opacity:1;fill-rule:nonzero;stroke:none"
             id="path3364" />
        </g>
        <g
           id="g3366"
           transform="translate(459.14751,199.9026)">
          <path
             d="m 0,0 0,62.095 14.483,3.534 -2.271,-53.842 13.909,1.887 c 3.777,0.526 7.725,2.123 11.848,4.795 l 0.322,-2.91 0.188,-4.007 C 38.57,9.978 38.441,8.174 38.094,6.129 37.839,4.56 37.363,3.167 36.68,1.966 L 0,0 z"
             style="fill:#2b317c;fill-opacity:1;fill-rule:nonzero;stroke:none"
             id="path3368" />
        </g>
        <g
           id="g3370"
           transform="translate(526.9837,223.9655)">
          <path
             d="M 0,0 C -0.903,0.255 -2.188,0.613 -3.86,1.071 -6.263,1.533 -7.829,1.74 -8.558,1.685 l -2.252,0 -2.124,-0.319 0.634,-12.697 22.342,2.985 1.606,-12.962 -23.556,0.393 -15.115,-2.069 0.639,64.31 35.714,-0.359 c 0.902,-1.411 1.333,-3.374 1.289,-5.883 l -0.061,-2.823 c 0,-0.265 -0.132,-0.94 -0.391,-2.038 L 9.719,28.262 C 9.546,27.527 9.306,26.796 9.007,26.065 7.246,27.055 5.275,27.966 3.094,28.802 l -2.708,0.55 -2.768,0.238 -7.594,-0.359 -2.061,0 -0.961,0 -1.162,0.359 0.788,-18.06 16.266,1.054 C 2.511,11.957 2.165,11.194 1.865,10.304 L 1.606,7.551 1.804,4.331 1.992,1.656 C 1.992,0.398 1.65,-0.231 0.967,-0.231 L 0,0 z"
             style="fill:#2b317c;fill-opacity:1;fill-rule:nonzero;stroke:none"
             id="path3372" />
        </g>
        <g
           id="g3374"
           transform="translate(188.69949,117.8797)">
          <path
             d="M 0,0 0.435,0.137 0.374,0.727 0.157,1.539 -0.041,1.618 -0.414,1.911 C -0.745,2.176 -1.14,2.4 -1.595,2.583 c -0.454,0.185 -0.887,0.276 -1.297,0.276 -0.66,0 -1.215,-0.204 -1.662,-0.61 -0.449,-0.407 -0.675,-0.883 -0.675,-1.42 0,-0.568 0.325,-1.009 0.971,-1.327 0.409,-0.141 0.844,-0.215 1.308,-0.215 1.161,0 2.145,0.237 2.95,0.713 M -0.454,3.404 -1.108,4.73 c -0.235,0.355 -0.517,0.613 -0.848,0.77 -0.367,0.172 -0.737,0.256 -1.105,0.256 -0.235,0 -0.771,-0.096 -1.6,-0.294 L -5.826,5.186 c -0.329,0 -0.492,0.182 -0.492,0.556 l 0.117,0.698 c 1.685,0.673 3.16,1.01 4.424,1.01 1.238,0 2.166,-0.292 2.785,-0.867 0.554,-0.514 1.007,-1.42 1.363,-2.711 0.512,-1.844 0.77,-3.967 0.77,-6.366 l -2.963,-0.73 0.139,0.788 0.079,0.667 c -0.383,-0.274 -0.961,-0.512 -1.739,-0.711 -0.684,-0.155 -1.309,-0.234 -1.875,-0.234 -1.29,0 -2.252,0.342 -2.885,1.03 -0.631,0.681 -0.946,1.559 -0.946,2.631 0,1.346 0.526,2.335 1.579,2.969 0.514,0.315 1.145,0.474 1.896,0.474 1.145,0 2.186,-0.329 3.12,-0.986"
             style="fill:#60c232;fill-opacity:1;fill-rule:nonzero;stroke:none"
             id="path3376" />
        </g>
        <g
           id="g3378"
           transform="translate(205.5675,119.3075)">
          <path
             d="M 0,0 -0.221,3.875 -2.964,2.492 C -3.707,2.028 -4.157,1.533 -4.317,0.995 l -0.158,-1.011 c 0,-0.579 0.208,-1.061 0.626,-1.442 0.417,-0.38 0.918,-0.574 1.501,-0.574 1.181,0 1.961,0.683 2.348,2.032 m 0.244,-4.359 -0.077,1.301 -0.554,-0.396 -0.592,-0.274 -0.654,-0.161 -0.67,-0.071 -0.612,0 c -0.527,0.014 -1.12,0.261 -1.777,0.751 -0.395,0.289 -0.75,0.611 -1.069,0.966 -0.196,0.224 -0.394,0.749 -0.589,1.581 -0.185,0.763 -0.278,1.345 -0.278,1.738 0,0.447 0.073,0.842 0.218,1.184 l 0.532,1.243 c 0.225,0.514 0.916,0.982 2.075,1.403 0.947,0.357 1.947,0.536 3.002,0.536 l 0.492,0 0.297,0 3.161,0.4 C 2.696,4.1 2.425,2.684 2.336,1.593 2.283,0.973 2.258,0.249 2.258,-0.581 c 0,-2.109 0.223,-3.945 0.673,-5.512 0.013,-0.066 0.02,-0.133 0.02,-0.201 0,-0.419 -0.448,-0.788 -1.344,-1.104 -1.041,-0.357 -2.29,-0.535 -3.75,-0.535 -0.818,0 -1.686,0.092 -2.608,0.273 -1.226,0.253 -1.995,0.602 -2.311,1.048 l -0.336,0.615 c 0,0.301 0.224,0.544 0.671,0.731 0.356,0.155 0.704,0.236 1.047,0.236 0.618,0 1.119,-0.252 1.501,-0.75 0.5,-0.682 1.236,-1.024 2.213,-1.024 0.394,0 0.799,0.097 1.213,0.285 0.414,0.192 0.682,0.43 0.8,0.723 l 0.158,0.371 c 0.039,0.093 0.071,0.272 0.099,0.535 l -0.02,0.333 -0.04,0.198 z"
             style="fill:#60c232;fill-opacity:1;fill-rule:nonzero;stroke:none"
             id="path3380" />
        </g>
        <g
           id="g3382"
           transform="translate(215.7742,117.8797)">
          <path
             d="M 0,0 0.437,0.137 0.377,0.727 0.16,1.539 -0.039,1.618 -0.414,1.911 c -0.33,0.265 -0.724,0.489 -1.179,0.672 -0.456,0.185 -0.887,0.276 -1.296,0.276 -0.661,0 -1.217,-0.204 -1.664,-0.61 -0.45,-0.407 -0.674,-0.883 -0.674,-1.42 0,-0.568 0.325,-1.009 0.97,-1.327 0.41,-0.141 0.844,-0.215 1.309,-0.215 1.161,0 2.145,0.237 2.948,0.713 M -0.453,3.404 -1.104,4.73 C -1.341,5.085 -1.623,5.343 -1.954,5.5 -2.323,5.672 -2.692,5.756 -3.061,5.756 -3.296,5.756 -3.83,5.66 -4.659,5.462 L -5.823,5.186 c -0.33,0 -0.494,0.182 -0.494,0.556 l 0.118,0.698 c 1.684,0.673 3.159,1.01 4.423,1.01 1.238,0 2.165,-0.292 2.785,-0.867 C 1.562,6.069 2.017,5.163 2.372,3.872 2.885,2.028 3.143,-0.095 3.143,-2.494 l -2.963,-0.73 0.138,0.788 0.08,0.667 c -0.382,-0.274 -0.963,-0.512 -1.739,-0.711 -0.684,-0.155 -1.311,-0.234 -1.877,-0.234 -1.29,0 -2.25,0.342 -2.882,1.03 -0.631,0.681 -0.948,1.559 -0.948,2.631 0,1.346 0.526,2.335 1.58,2.969 0.514,0.315 1.145,0.474 1.897,0.474 1.143,0 2.184,-0.329 3.118,-0.986"
             style="fill:#60c232;fill-opacity:1;fill-rule:nonzero;stroke:none"
             id="path3384" />
        </g>
        <g
           id="g3386"
           transform="translate(221.1716,125.1037)">
          <path
             d="m 0,0 0.06,-1.13 c 0.671,0.661 1.533,0.993 2.586,0.993 0.538,0 1.064,-0.091 1.578,-0.274 0.475,-0.172 0.822,-0.344 1.045,-0.525 0.224,-0.172 0.375,-0.327 0.454,-0.457 l 0.415,-0.528 c 0.671,1.238 1.684,1.855 3.038,1.855 1.147,0 2.077,-0.437 2.803,-1.312 0.723,-0.876 1.086,-2.795 1.086,-5.757 0,-0.434 0.104,-0.943 0.315,-1.521 l 0.315,-0.868 c 0,-0.134 -0.132,-0.244 -0.394,-0.334 l -0.534,-0.059 -0.909,-0.021 c -0.5,-0.012 -0.883,0.111 -1.145,0.375 -0.223,0.313 -0.329,0.673 -0.315,1.079 l 0.02,0.459 c 0.013,0.223 0.039,0.415 0.078,0.571 l 0.178,1.144 0.08,0.75 0.018,0.395 c 0.04,0.815 -0.119,1.512 -0.473,2.091 -0.33,0.498 -0.744,0.752 -1.246,0.752 C 8.66,-2.322 8.29,-2.45 7.95,-2.698 7.606,-2.949 7.27,-3.356 6.942,-3.918 l 0.125,-0.71 0.024,-0.554 0,-1.89 c 0.015,-0.538 0.075,-0.961 0.182,-1.26 l 0.419,-1.184 c 0,-0.133 -0.105,-0.24 -0.317,-0.336 l -0.433,-0.06 -0.77,-0.017 c -0.318,-0.078 -0.582,-0.119 -0.79,-0.119 -0.713,0 -1.067,0.419 -1.067,1.259 l 0.122,1.276 0.141,1.276 c 0,0.928 -0.131,1.749 -0.396,2.456 -0.37,0.997 -0.948,1.492 -1.74,1.492 -0.752,0 -1.484,-0.551 -2.195,-1.651 l 0.614,-6.254 -3.025,0.177 0,10.279 L 0,0 z"
             style="fill:#60c232;fill-opacity:1;fill-rule:nonzero;stroke:none"
             id="path3388" />
        </g>
        <g
           id="g3390"
           transform="translate(244.7327,117.2375)">
          <path
             d="m 0,0 c -0.541,-0.618 -1.284,-1.126 -2.233,-1.52 -0.894,-0.366 -1.778,-0.552 -2.646,-0.552 -0.87,0 -1.607,0.14 -2.213,0.422 -0.606,0.284 -1.199,0.765 -1.778,1.449 -0.657,0.765 -0.988,1.751 -0.988,2.96 0,1.055 0.251,2.026 0.753,2.921 0.539,0.96 1.273,1.643 2.195,2.051 0.646,0.292 1.325,0.434 2.037,0.434 0.355,0 0.777,-0.059 1.265,-0.176 0.619,-0.146 1.219,-0.461 1.799,-0.95 C -1.15,6.49 -0.818,5.93 -0.818,5.367 -0.818,4.998 -1.011,4.61 -1.394,4.204 -1.869,3.703 -2.356,3.321 -2.857,3.06 L -4.441,2.249 -6.28,1.521 -6.538,2.112 -6.598,2.488 -6.854,2.862 c 0.538,0.146 1.243,0.48 2.11,1.007 1.012,0.605 1.521,1.103 1.521,1.501 0,0.233 -0.269,0.355 -0.807,0.355 -1.153,0 -2.017,-0.175 -2.595,-0.534 C -7.24,4.798 -7.528,3.82 -7.488,2.256 -7.475,1.677 -7.2,1.141 -6.66,0.64 c 0.487,-0.473 1.098,-0.711 1.833,-0.711 0.972,0 2.022,0.435 3.153,1.297 0.46,-0.251 0.825,-0.495 1.102,-0.731 L 0,0 z"
             style="fill:#60c232;fill-opacity:1;fill-rule:nonzero;stroke:none"
             id="path3392" />
        </g>
        <g
           id="g3394"
           transform="translate(253.7523,122.28281)">
          <path
             d="m 0,0 0.286,-4.436 c 0.901,-0.313 1.681,-0.47 2.342,-0.47 1.443,0 2.277,0.666 2.501,2 0.027,0.159 0.042,0.349 0.042,0.573 0,2.08 -0.866,3.123 -2.597,3.123 -0.502,0 -1.16,-0.141 -1.978,-0.415 L 0,0 z m -2.883,-13.278 0.495,14.357 c -0.055,0.594 0.349,1.102 1.207,1.521 0.788,0.395 1.745,0.594 2.865,0.594 2.134,0 3.71,-0.706 4.725,-2.115 0.608,-0.843 0.912,-1.953 0.912,-3.337 0,-1.579 -0.47,-2.784 -1.406,-3.612 C 5.518,-6.227 4.98,-6.523 4.294,-6.759 3.487,-7.051 2.796,-7.181 2.214,-7.154 l -0.355,0.021 -0.594,0.062 c -0.211,0.027 -0.467,0.115 -0.772,0.272 l 0.338,-5.308 -3.714,-1.171 z"
             style="fill:#60c232;fill-opacity:1;fill-rule:nonzero;stroke:none"
             id="path3396" />
        </g>
        <g
           id="g3398"
           transform="translate(263.1324,130.1378)">
          <path
             d="M 0,0 1.945,-0.668 2.654,-15.055 -0.844,-15.63 0,0 z"
             style="fill:#60c232;fill-opacity:1;fill-rule:nonzero;stroke:none"
             id="path3400" />
        </g>
        <g
           id="g3402"
           transform="translate(273.66119,117.8797)">
          <path
             d="m 0,0 0.436,0.137 -0.06,0.59 -0.219,0.812 -0.196,0.079 -0.377,0.293 c -0.329,0.265 -0.723,0.489 -1.178,0.672 -0.455,0.185 -0.887,0.276 -1.298,0.276 -0.66,0 -1.214,-0.204 -1.662,-0.61 -0.448,-0.407 -0.673,-0.883 -0.673,-1.42 0,-0.568 0.324,-1.009 0.968,-1.327 0.409,-0.141 0.846,-0.215 1.309,-0.215 1.161,0 2.146,0.237 2.95,0.713 M -0.453,3.404 -1.105,4.73 c -0.238,0.355 -0.52,0.613 -0.849,0.77 -0.369,0.172 -0.739,0.256 -1.107,0.256 -0.236,0 -0.77,-0.096 -1.6,-0.294 L -5.825,5.186 c -0.33,0 -0.495,0.182 -0.495,0.556 l 0.119,0.698 c 1.686,0.673 3.16,1.01 4.426,1.01 1.238,0 2.165,-0.292 2.783,-0.867 C 1.561,6.069 2.015,5.163 2.37,3.872 2.884,2.028 3.141,-0.095 3.141,-2.494 l -2.964,-0.73 0.138,0.788 0.081,0.667 c -0.382,-0.274 -0.961,-0.512 -1.738,-0.711 -0.685,-0.155 -1.31,-0.234 -1.876,-0.234 -1.289,0 -2.251,0.342 -2.884,1.03 -0.63,0.681 -0.948,1.559 -0.948,2.631 0,1.346 0.526,2.335 1.581,2.969 0.514,0.315 1.145,0.474 1.895,0.474 1.144,0 2.186,-0.329 3.121,-0.986"
             style="fill:#60c232;fill-opacity:1;fill-rule:nonzero;stroke:none"
             id="path3404" />
        </g>
        <g
           id="g3406"
           transform="translate(279.0229,125.1683)">
          <path
             d="m 0,0 0.059,-1.116 c 0.672,0.679 1.542,1.024 2.612,1.024 1.122,0 2.106,-0.362 2.949,-1.09 1.029,-0.879 1.544,-2.85 1.544,-5.905 0,-0.476 0.065,-0.898 0.198,-1.27 L 7.79,-9.58 c 0,-0.104 -0.12,-0.199 -0.355,-0.285 -0.236,-0.088 -0.633,-0.128 -1.187,-0.128 -0.315,-0.079 -0.585,-0.119 -0.809,-0.119 -0.712,0 -1.068,0.428 -1.068,1.282 l 0.128,1.281 0.15,1.284 c 0,0.934 -0.137,1.761 -0.416,2.487 -0.381,0.998 -0.966,1.499 -1.745,1.499 -0.754,0 -1.489,-0.555 -2.204,-1.658 l 0.538,-6.321 -2.987,0.177 0,10.279 L 0,0 z"
             style="fill:#60c232;fill-opacity:1;fill-rule:nonzero;stroke:none"
             id="path3408" />
        </g>
        <g
           id="g3410"
           transform="translate(303.1214,125.55029)">
          <path
             d="m 0,0 c -1.079,1.176 -2.174,1.915 -3.279,2.212 -0.34,0.092 -0.645,0.142 -0.909,0.142 l -0.591,-0.059 0.404,-4.05 c 0.469,0 1.02,-0.073 1.65,-0.218 0.717,-0.172 1.22,-0.373 1.509,-0.613 0.222,-0.182 0.58,-0.71 1.077,-1.577 l -0.788,0.078 c -0.409,0 -0.734,-0.121 -0.969,-0.358 l -0.334,-0.805 -0.317,0.373 c -0.422,0.631 -0.982,0.949 -1.678,0.949 l 0.541,-6.517 -3.206,-1.874 0,7.757 c -0.649,-0.409 -1.433,-0.845 -2.349,-1.303 -0.185,0 -0.343,0.098 -0.475,0.297 -0.134,0.198 -0.2,0.47 -0.2,0.812 0,0.881 0.545,1.615 1.633,2.192 0.451,0.24 0.915,0.417 1.391,0.536 l 0,5.023 1.985,1.011 4.12,-0.572 L 0,0 z"
             style="fill:#60c232;fill-opacity:1;fill-rule:nonzero;stroke:none"
             id="path3412" />
        </g>
        <g
           id="g3414"
           transform="translate(305.3459,120.5311)">
          <path
             d="m 0,0 c 0,-0.552 0.245,-1.083 0.732,-1.594 0.42,-0.434 0.921,-0.758 1.503,-0.967 0.487,-0.169 0.915,-0.253 1.283,-0.253 0.569,0 1.103,0.148 1.61,0.449 0.507,0.302 0.867,0.7 1.077,1.193 0.212,0.493 0.319,0.915 0.319,1.27 0,0.578 -0.237,1.078 -0.712,1.498 C 5.403,1.963 4.889,2.218 4.269,2.362 3.741,2.479 3.263,2.542 2.826,2.542 0.943,2.542 0,1.696 0,0 M 7.09,-3.62 C 6.484,-4.292 5.917,-4.76 5.39,-5.024 4.77,-5.325 4.111,-5.475 3.41,-5.475 l -0.535,0 c -0.196,0.027 -0.493,0.077 -0.889,0.155 -0.064,0.015 -0.276,0.094 -0.63,0.24 -1.677,0.654 -2.78,1.596 -3.306,2.82 -0.302,0.683 -0.455,1.386 -0.455,2.095 0,0.686 0.141,1.376 0.419,2.072 0.303,0.775 0.71,1.344 1.228,1.698 0.809,0.555 1.934,0.831 3.377,0.831 1.904,0 3.479,-0.417 4.725,-1.245 0.766,-0.512 1.17,-0.953 1.21,-1.322 l 0.119,-0.988 0,-0.752 C 8.726,-0.975 8.561,-1.822 8.177,-2.414 7.851,-2.887 7.486,-3.29 7.09,-3.62"
             style="fill:#60c232;fill-opacity:1;fill-rule:nonzero;stroke:none"
             id="path3416" />
        </g>
        <g
           id="g3418"
           transform="translate(316.46831,125.07651)">
          <path
             d="m 0,0 0.059,-0.986 c 0.368,0.435 0.781,0.741 1.24,0.909 0.463,0.172 0.956,0.261 1.48,0.261 0.384,0 0.699,-0.03 0.947,-0.081 L 4.872,-0.135 6.864,-0.53 C 7.243,-0.689 7.522,-1.282 7.691,-2.308 L 6.388,-2.863 C 6.191,-2.955 5.912,-3.061 5.561,-3.178 c -0.121,0 -0.285,0.073 -0.497,0.216 l -0.81,0.567 C 3.438,-1.819 2.84,-1.533 2.457,-1.533 1.982,-1.533 1.47,-1.953 0.917,-2.794 0.719,-3.093 0.501,-3.456 0.263,-3.878 l 0.453,-6.108 -2.88,0 0,9.986 L 0,0 z"
             style="fill:#60c232;fill-opacity:1;fill-rule:nonzero;stroke:none"
             id="path3420" />
        </g>
        <g
           id="g3422"
           transform="translate(335.0374,129.5929)">
          <path
             d="m 0,0 0.453,-3.933 1.444,0.071 c 0.196,0.015 0.521,-0.045 0.968,-0.175 l 1.478,-0.437 c 0.216,-0.119 0.466,-0.392 0.754,-0.812 l -0.665,0.081 c -0.69,0 -1.019,-0.332 -0.975,-0.986 l 0,-0.359 C 3.471,-6.696 3.48,-6.788 3.496,-6.824 l -0.079,0.059 -0.256,0.334 c -0.188,0.24 -0.567,0.46 -1.156,0.664 -0.584,0.203 -1.056,0.302 -1.411,0.302 l 0.987,-8.827 -3.444,-1.013 -0.082,9.19 -0.987,-0.372 -0.538,-0.101 -0.555,-0.04 c -0.357,-0.026 -0.65,0.024 -0.879,0.159 -0.235,0.134 -0.35,0.302 -0.35,0.512 0,0.199 0.074,0.41 0.22,0.635 0.235,0.456 0.584,0.767 1.046,0.926 l 0.492,0.063 0.518,-0.028 c 0.139,0 0.32,-0.016 0.532,-0.048 0.249,0 0.456,0.027 0.631,0.079 L -2.013,-1.007 0,0 z"
             style="fill:#60c232;fill-opacity:1;fill-rule:nonzero;stroke:none"
             id="path3424" />
        </g>
        <g
           id="g3426"
           transform="translate(342.9017,129.4178)">
          <path
             d="m 0,0 -0.274,-4.91 c 0.524,0.304 1.144,0.459 1.854,0.459 1.176,0 2.176,-0.374 2.991,-1.124 0.995,-0.919 1.494,-2.857 1.494,-5.811 0,-0.503 0.061,-0.919 0.185,-1.261 l 0.424,-1.183 c 0,-0.133 -0.104,-0.241 -0.317,-0.336 l -0.436,-0.06 -0.766,-0.017 c -0.318,-0.078 -0.582,-0.119 -0.794,-0.119 -0.711,0 -1.065,0.419 -1.065,1.259 l 0.119,1.281 0.136,1.278 c 0,0.921 -0.13,1.734 -0.394,2.446 -0.383,1 -0.956,1.495 -1.721,1.495 -0.58,0 -1.186,-0.363 -1.816,-1.086 l -0.223,-6.673 -2.295,0 L -3.259,0.43 0,0 z"
             style="fill:#60c232;fill-opacity:1;fill-rule:nonzero;stroke:none"
             id="path3428" />
        </g>
        <g
           id="g3430"
           transform="translate(359.8325,117.2375)">
          <path
             d="m 0,0 c -0.539,-0.618 -1.286,-1.126 -2.233,-1.52 -0.898,-0.366 -1.777,-0.552 -2.648,-0.552 -0.869,0 -1.608,0.14 -2.21,0.422 -0.606,0.284 -1.196,0.765 -1.783,1.449 -0.654,0.765 -0.984,1.751 -0.984,2.96 0,1.055 0.25,2.026 0.752,2.921 0.54,0.96 1.273,1.643 2.194,2.051 0.649,0.292 1.327,0.434 2.038,0.434 0.357,0 0.779,-0.059 1.266,-0.176 0.619,-0.146 1.217,-0.461 1.797,-0.95 C -1.149,6.49 -0.825,5.93 -0.825,5.367 -0.825,4.998 -1.011,4.61 -1.394,4.204 -1.866,3.703 -2.36,3.321 -2.859,3.06 L -4.44,2.249 -6.281,1.521 -6.538,2.112 -6.599,2.488 -6.855,2.862 c 0.539,0.146 1.242,0.48 2.112,1.007 1.007,0.605 1.521,1.103 1.521,1.501 0,0.233 -0.271,0.355 -0.809,0.355 -1.152,0 -2.017,-0.175 -2.592,-0.534 C -7.239,4.798 -7.527,3.82 -7.49,2.256 -7.474,1.677 -7.197,1.141 -6.662,0.64 c 0.485,-0.473 1.099,-0.711 1.832,-0.711 0.975,0 2.024,0.435 3.153,1.297 0.462,-0.251 0.832,-0.495 1.106,-0.731 L 0,0 z"
             style="fill:#60c232;fill-opacity:1;fill-rule:nonzero;stroke:none"
             id="path3432" />
        </g>
        <g
           id="g3434"
           transform="translate(368.4317,125.1037)">
          <path
             d="m 0,0 0.062,-1.13 c 0.664,0.661 1.528,0.993 2.584,0.993 0.543,0 1.063,-0.091 1.576,-0.274 0.473,-0.172 0.821,-0.344 1.048,-0.525 0.22,-0.172 0.375,-0.327 0.454,-0.457 l 0.41,-0.528 c 0.673,1.238 1.69,1.855 3.039,1.855 1.146,0 2.08,-0.437 2.802,-1.312 0.724,-0.876 1.093,-2.795 1.093,-5.757 0,-0.434 0.097,-0.943 0.31,-1.521 l 0.316,-0.868 c 0,-0.134 -0.131,-0.244 -0.395,-0.334 l -0.534,-0.059 -0.907,-0.021 c -0.503,-0.012 -0.887,0.111 -1.143,0.375 -0.225,0.313 -0.33,0.673 -0.317,1.079 l 0.018,0.459 c 0.014,0.223 0.042,0.415 0.08,0.571 l 0.176,1.144 0.078,0.75 0.02,0.395 c 0.043,0.815 -0.117,1.512 -0.47,2.091 -0.335,0.498 -0.747,0.752 -1.247,0.752 -0.394,0 -0.765,-0.128 -1.101,-0.376 -0.346,-0.251 -0.683,-0.658 -1.011,-1.22 l 0.128,-0.71 0.024,-0.554 0,-1.89 C 7.106,-7.61 7.167,-8.033 7.271,-8.332 L 7.69,-9.516 c 0,-0.133 -0.104,-0.24 -0.313,-0.336 L 6.941,-9.912 6.17,-9.929 c -0.317,-0.078 -0.581,-0.119 -0.79,-0.119 -0.709,0 -1.066,0.419 -1.066,1.259 l 0.124,1.276 0.136,1.276 c 0,0.928 -0.13,1.749 -0.394,2.456 -0.365,0.997 -0.949,1.492 -1.739,1.492 -0.749,0 -1.485,-0.551 -2.192,-1.651 l 0.615,-6.254 -3.029,0.177 0,10.279 L 0,0 z"
             style="fill:#60c232;fill-opacity:1;fill-rule:nonzero;stroke:none"
             id="path3436" />
        </g>
        <g
           id="g3438"
           transform="translate(383.2045,126.1082)">
          <path
             d="m 0,0 c -0.301,0.25 -0.452,0.51 -0.452,0.773 0,0.174 0.121,0.399 0.354,0.675 0.33,0.263 0.68,0.396 1.047,0.396 0.353,0 0.656,-0.107 0.898,-0.326 C 2.087,1.298 2.212,1.021 2.212,0.673 2.212,0.463 2.177,0.303 2.113,0.199 2.062,0.051 1.867,-0.081 1.544,-0.198 1.211,-0.318 0.955,-0.379 0.768,-0.379 L 0.382,-0.318 0,0 z m -0.231,-1.167 2.006,-0.514 0.726,-9.201 -3.025,-0.792 0.293,10.507 z"
             style="fill:#60c232;fill-opacity:1;fill-rule:nonzero;stroke:none"
             id="path3440" />
        </g>
        <g
           id="g3442"
           transform="translate(388.6785,125.1683)">
          <path
             d="m 0,0 0.057,-1.116 c 0.673,0.679 1.545,1.024 2.614,1.024 1.122,0 2.105,-0.362 2.95,-1.09 1.028,-0.879 1.541,-2.85 1.541,-5.905 0,-0.476 0.064,-0.898 0.194,-1.27 L 7.789,-9.58 c 0,-0.104 -0.116,-0.199 -0.355,-0.285 -0.237,-0.088 -0.631,-0.128 -1.185,-0.128 -0.317,-0.079 -0.586,-0.119 -0.811,-0.119 -0.711,0 -1.064,0.428 -1.064,1.282 l 0.127,1.281 0.152,1.284 c 0,0.934 -0.142,1.761 -0.419,2.487 -0.383,0.998 -0.968,1.499 -1.745,1.499 -0.755,0 -1.491,-0.555 -2.207,-1.658 l 0.54,-6.321 -2.988,0.177 0,10.279 L 0,0 z"
             style="fill:#60c232;fill-opacity:1;fill-rule:nonzero;stroke:none"
             id="path3444" />
        </g>
        <g
           id="g3446"
           transform="translate(403.5842,117.80949)">
          <path
             d="M 0,0 -0.178,4.719 C -1.119,5.13 -1.903,5.335 -2.537,5.335 -3.278,5.335 -3.839,5.087 -4.221,4.602 -4.564,4.164 -4.734,3.57 -4.734,2.816 c 0,-1.283 0.328,-2.179 0.988,-2.693 0.435,-0.331 0.952,-0.477 1.548,-0.439 l 0.872,0.041 c 0.025,0 0.378,0.071 1.048,0.217 L 0,0 z m 2.951,-2.719 -2.176,0.232 c -0.629,-0.153 -1.224,-0.232 -1.773,-0.232 -2.177,0 -3.724,0.553 -4.647,1.659 -0.925,1.104 -1.382,2.302 -1.382,3.602 0,2.248 1.016,3.714 3.056,4.401 0.703,0.242 1.398,0.359 2.097,0.359 0.633,0 1.17,-0.097 1.623,-0.289 l -0.144,4.532 3.594,0.531 -0.248,-14.795 z"
             style="fill:#60c232;fill-opacity:1;fill-rule:nonzero;stroke:none"
             id="path3448" />
        </g>
        <g
           id="g3450"
           transform="translate(408.3168,113.8343)">
          <path
             d="m 0,0 c -0.735,0 -1.106,0.452 -1.106,1.348 0,0.856 0.347,1.556 1.028,2.097 0.371,0.29 0.733,0.438 1.088,0.438 0.331,0 0.656,-0.132 0.98,-0.388 C 2.313,3.237 2.576,2.827 2.788,2.26 2.989,1.745 3.087,1.262 3.087,0.815 c 0,-1.03 -0.665,-1.934 -1.998,-2.713 -0.776,-0.447 -1.52,-0.667 -2.23,-0.667 -0.259,0 -0.496,0.022 -0.694,0.075 0.134,0.119 0.485,0.442 1.047,0.971 0.357,0.327 0.575,0.54 0.656,0.631 0.273,0.307 0.432,0.535 0.469,0.694 C 0.337,-0.066 0.226,0 0,0"
             style="fill:#60c232;fill-opacity:1;fill-rule:nonzero;stroke:none"
             id="path3452" />
        </g>
        <g
           id="g3454"
           transform="translate(420.6788,122.3905)">
          <path
             d="M 0,0 -0.176,-4.48 0.158,-4.537 0.47,-4.581 c 0.778,-0.183 1.401,-0.273 1.873,-0.273 1.698,0 2.542,1.036 2.542,3.112 0,0.751 -0.187,1.356 -0.55,1.811 C 3.968,0.525 3.416,0.754 2.682,0.754 2.137,0.754 1.279,0.514 0.1,0.04 L 0,0 z M 0.292,7.148 0.08,2.293 C 0.311,2.402 0.622,2.511 1.005,2.62 l 0.609,0.101 0.423,0 c 1.523,0 2.74,-0.415 3.651,-1.242 L 6.237,0.852 C 6.333,0.744 6.482,0.45 6.695,-0.035 6.969,-0.679 7.107,-1.335 7.107,-2.006 7.107,-3.238 6.75,-4.319 6.043,-5.245 5.336,-6.172 4.377,-6.757 3.179,-7.009 2.048,-7.275 0.738,-7.407 -0.751,-7.407 l -1.06,0 -0.774,0 -0.582,15.01 3.459,-0.455 z"
             style="fill:#60c232;fill-opacity:1;fill-rule:nonzero;stroke:none"
             id="path3456" />
        </g>
        <g
           id="g3458"
           transform="translate(430.1703,120.5311)">
          <path
             d="M 0,0 C 0,-0.552 0.245,-1.083 0.726,-1.594 1.15,-2.028 1.654,-2.352 2.231,-2.561 2.72,-2.73 3.146,-2.814 3.518,-2.814 c 0.567,0 1.102,0.148 1.61,0.449 0.506,0.302 0.866,0.7 1.077,1.193 0.209,0.493 0.318,0.915 0.318,1.27 0,0.578 -0.237,1.078 -0.712,1.498 C 5.402,1.963 4.888,2.218 4.272,2.362 3.737,2.479 3.261,2.542 2.823,2.542 0.943,2.542 0,1.696 0,0 M 7.088,-3.62 C 6.48,-4.292 5.913,-4.76 5.39,-5.024 4.77,-5.325 4.107,-5.475 3.41,-5.475 l -0.537,0 c -0.195,0.027 -0.494,0.077 -0.884,0.155 -0.072,0.015 -0.284,0.094 -0.636,0.24 -1.679,0.654 -2.777,1.596 -3.3,2.82 -0.303,0.683 -0.46,1.386 -0.46,2.095 0,0.686 0.139,1.376 0.417,2.072 0.306,0.775 0.714,1.344 1.231,1.698 0.808,0.555 1.934,0.831 3.377,0.831 1.903,0 3.479,-0.417 4.726,-1.245 C 8.11,2.679 8.514,2.238 8.549,1.869 l 0.123,-0.988 0,-0.752 C 8.723,-0.975 8.56,-1.822 8.177,-2.414 7.848,-2.887 7.486,-3.29 7.088,-3.62"
             style="fill:#60c232;fill-opacity:1;fill-rule:nonzero;stroke:none"
             id="path3460" />
        </g>
        <g
           id="g3462"
           transform="translate(446.08521,117.80949)">
          <path
             d="M 0,0 -0.177,4.719 C -1.113,5.13 -1.904,5.335 -2.535,5.335 -3.273,5.335 -3.833,5.087 -4.221,4.602 -4.567,4.164 -4.738,3.57 -4.738,2.816 c 0,-1.283 0.334,-2.179 0.992,-2.693 0.436,-0.331 0.956,-0.477 1.55,-0.439 l 0.87,0.041 c 0.026,0 0.377,0.071 1.052,0.217 L 0,0 z m 2.953,-2.719 -2.172,0.232 c -0.636,-0.153 -1.229,-0.232 -1.777,-0.232 -2.184,0 -3.729,0.553 -4.655,1.659 -0.919,1.104 -1.38,2.302 -1.38,3.602 0,2.248 1.017,3.714 3.06,4.401 0.7,0.242 1.398,0.359 2.102,0.359 0.627,0 1.165,-0.097 1.615,-0.289 l -0.135,4.532 3.584,0.531 -0.242,-14.795 z"
             style="fill:#60c232;fill-opacity:1;fill-rule:nonzero;stroke:none"
             id="path3464" />
        </g>
        <g
           id="g3466"
           transform="translate(456.658,114.9391)">
          <path
             d="m 0,0 -0.082,1.311 -0.554,-0.4 C -0.817,0.775 -1.033,0.675 -1.27,0.608 -1.782,0.461 -2.213,0.395 -2.571,0.408 l -0.613,0 C -3.71,0.422 -4.353,0.704 -5.102,1.258 -5.588,1.619 -5.941,1.976 -6.147,2.341 -6.363,2.705 -6.502,3.092 -6.581,3.5 l -0.181,0.93 0,0.437 c -0.014,0.224 0.066,0.618 0.244,1.193 0.176,0.565 0.26,1.088 0.26,1.562 0,0.397 -0.105,0.781 -0.312,1.15 l -0.704,0.953 c 0.079,0.082 0.18,0.131 0.299,0.159 l 1.137,0.04 c 1.178,0.038 1.77,-0.66 1.77,-2.1 0,-0.398 -0.065,-0.987 -0.2,-1.773 -0.134,-0.788 -0.196,-1.377 -0.196,-1.771 0,-0.543 0.16,-1.058 0.493,-1.546 0.359,-0.553 0.795,-0.833 1.308,-0.833 0.556,0 1.367,0.618 2.422,1.861 L -0.575,9.774 3.08,10.463 2.741,9.418 C 2.598,8.973 2.429,8.15 2.231,6.954 2.029,5.838 1.937,4.791 1.954,3.825 L 1.971,2.401 2.112,1.241 C 2.188,0.558 2.313,-0.1 2.484,-0.731 l 0.215,-0.808 c 0,-0.685 -0.879,-1.249 -2.642,-1.694 -1.328,-0.342 -2.49,-0.514 -3.48,-0.514 -0.707,0 -1.432,0.081 -2.165,0.236 -0.98,0.219 -1.607,0.529 -1.877,0.921 -0.215,0.313 -0.315,0.531 -0.315,0.65 0,0.287 0.196,0.512 0.585,0.666 0.305,0.131 0.625,0.195 0.954,0.195 0.275,0 0.458,-0.013 0.554,-0.038 l 0.628,-0.182 1.679,-0.72 c 0.528,-0.226 1.014,-0.345 1.464,-0.345 0.817,0 1.387,0.307 1.716,0.916 0.184,0.343 0.268,0.662 0.257,0.951 L 0.038,-0.181 C 0.038,-0.086 0.02,-0.023 0,0"
             style="fill:#60c232;fill-opacity:1;fill-rule:nonzero;stroke:none"
             id="path3468" />
        </g>
        <g
           id="g3470"
           transform="translate(472.8978,117.8797)">
          <path
             d="M 0,0 0.439,0.137 0.376,0.727 0.161,1.539 -0.038,1.618 -0.416,1.911 c -0.327,0.265 -0.722,0.489 -1.177,0.672 -0.457,0.185 -0.89,0.276 -1.298,0.276 -0.657,0 -1.21,-0.204 -1.661,-0.61 -0.45,-0.407 -0.676,-0.883 -0.676,-1.42 0,-0.568 0.325,-1.009 0.97,-1.327 0.413,-0.141 0.843,-0.215 1.311,-0.215 1.16,0 2.144,0.237 2.947,0.713 M -0.45,3.404 -1.102,4.73 c -0.236,0.355 -0.521,0.613 -0.849,0.77 -0.368,0.172 -0.738,0.256 -1.105,0.256 -0.24,0 -0.778,-0.096 -1.603,-0.294 L -5.827,5.186 c -0.329,0 -0.489,0.182 -0.489,0.556 L -6.2,6.44 c 1.685,0.673 3.158,1.01 4.424,1.01 C -0.54,7.45 0.39,7.158 1.01,6.583 1.565,6.069 2.019,5.163 2.368,3.872 2.885,2.028 3.143,-0.095 3.143,-2.494 l -2.96,-0.73 0.137,0.788 0.076,0.667 c -0.378,-0.274 -0.961,-0.512 -1.734,-0.711 -0.687,-0.155 -1.31,-0.234 -1.881,-0.234 -1.284,0 -2.25,0.342 -2.882,1.03 -0.628,0.681 -0.949,1.559 -0.949,2.631 0,1.346 0.529,2.335 1.581,2.969 0.515,0.315 1.148,0.474 1.896,0.474 1.143,0 2.185,-0.329 3.123,-0.986"
             style="fill:#60c232;fill-opacity:1;fill-rule:nonzero;stroke:none"
             id="path3472" />
        </g>
        <g
           id="g3474"
           transform="translate(478.2587,125.1683)">
          <path
             d="m 0,0 0.06,-1.116 c 0.673,0.679 1.545,1.024 2.609,1.024 1.131,0 2.108,-0.362 2.95,-1.09 1.036,-0.879 1.546,-2.85 1.546,-5.905 0,-0.476 0.062,-0.898 0.194,-1.27 L 7.79,-9.58 c 0,-0.104 -0.119,-0.199 -0.354,-0.285 -0.235,-0.088 -0.631,-0.128 -1.183,-0.128 -0.316,-0.079 -0.589,-0.119 -0.814,-0.119 -0.712,0 -1.06,0.428 -1.06,1.282 l 0.123,1.281 0.149,1.284 c 0,0.934 -0.137,1.761 -0.416,2.487 -0.384,0.998 -0.969,1.499 -1.747,1.499 -0.753,0 -1.487,-0.555 -2.202,-1.658 l 0.538,-6.321 -2.985,0.177 0,10.279 L 0,0 z"
             style="fill:#60c232;fill-opacity:1;fill-rule:nonzero;stroke:none"
             id="path3476" />
        </g>
        <g
           id="g3478"
           transform="translate(493.1691,117.80949)">
          <path
             d="M 0,0 -0.181,4.719 C -1.117,5.13 -1.902,5.335 -2.536,5.335 -3.274,5.335 -3.839,5.087 -4.222,4.602 -4.568,4.164 -4.736,3.57 -4.736,2.816 c 0,-1.283 0.332,-2.179 0.989,-2.693 0.437,-0.331 0.955,-0.477 1.545,-0.439 l 0.874,0.041 c 0.028,0 0.377,0.071 1.054,0.217 L 0,0 z m 2.952,-2.719 -2.175,0.232 c -0.633,-0.153 -1.226,-0.232 -1.779,-0.232 -2.175,0 -3.724,0.553 -4.644,1.659 -0.924,1.104 -1.387,2.302 -1.387,3.602 0,2.248 1.022,3.714 3.065,4.401 0.697,0.242 1.396,0.359 2.095,0.359 0.631,0 1.168,-0.097 1.618,-0.289 l -0.141,4.532 3.591,0.531 -0.243,-14.795 z"
             style="fill:#60c232;fill-opacity:1;fill-rule:nonzero;stroke:none"
             id="path3480" />
        </g>
        <g
           id="g3482"
           transform="translate(502.9198,117.0034)">
          <path
             d="m 0,0 c 0.261,0.865 0.737,1.3 1.415,1.3 0.407,0 1.118,-0.296 2.129,-0.894 1.015,-0.598 1.684,-0.898 2.013,-0.898 0.168,0 0.456,0.118 0.863,0.357 0.357,0.212 0.625,0.407 0.809,0.59 C 7.414,0.64 7.52,0.819 7.545,0.99 7.545,1.214 6.914,1.496 5.649,1.838 4.904,2.035 4.383,2.178 4.09,2.275 3.517,2.44 3.008,2.628 2.577,2.827 1.749,3.193 1.297,3.633 1.218,4.149 L 1.06,5.174 c 0,0.934 0.554,1.744 1.656,2.425 0.979,0.606 1.965,0.911 2.969,0.911 0.437,0 0.87,-0.088 1.303,-0.257 0.49,-0.186 0.849,-0.441 1.086,-0.769 0.225,-0.33 0.34,-0.672 0.34,-1.029 l 0,-0.236 -0.12,-0.594 C 8.223,5.323 7.989,4.988 7.576,4.617 7.16,4.248 6.735,4.065 6.303,4.065 5.85,4.065 5.502,4.309 5.257,4.804 5.175,5.124 5.404,5.466 5.935,5.824 6.469,6.185 6.742,6.398 6.756,6.464 L 6.699,6.542 C 6.669,6.598 6.597,6.651 6.477,6.705 L 5.643,6.983 4.845,7.125 C 4.366,7.125 3.963,6.949 3.629,6.598 3.298,6.25 3.136,5.807 3.136,5.278 c 0,-0.73 0.351,-1.303 1.047,-1.727 l 0.929,-0.338 1.01,-0.059 1.267,0 C 7.915,3.165 8.355,3.102 8.702,2.966 9.051,2.829 9.329,2.584 9.535,2.231 9.736,1.874 9.841,1.502 9.841,1.112 9.841,0.492 9.736,0.009 9.528,-0.345 L 8.875,-1.424 C 8.611,-1.871 8.033,-2.161 7.14,-2.289 6.863,-2.329 6.577,-2.348 6.269,-2.348 c -0.854,0 -2.065,0.216 -3.646,0.65 C 0.7,-1.172 -0.174,-0.607 0,0"
             style="fill:#60c232;fill-opacity:1;fill-rule:nonzero;stroke:none"
             id="path3484" />
        </g>
        <g
           id="g3486"
           transform="translate(514.93159,120.5311)">
          <path
             d="m 0,0 c 0,-0.552 0.247,-1.083 0.731,-1.594 0.421,-0.434 0.923,-0.758 1.502,-0.967 0.487,-0.169 0.913,-0.253 1.283,-0.253 0.566,0 1.102,0.148 1.614,0.449 0.508,0.302 0.866,0.7 1.074,1.193 0.209,0.493 0.319,0.915 0.319,1.27 0,0.578 -0.234,1.078 -0.712,1.498 C 5.404,1.963 4.891,2.218 4.266,2.362 3.742,2.479 3.261,2.542 2.827,2.542 0.941,2.542 0,1.696 0,0 M 7.092,-3.62 C 6.485,-4.292 5.919,-4.76 5.394,-5.024 4.77,-5.325 4.108,-5.475 3.412,-5.475 l -0.536,0 c -0.198,0.027 -0.497,0.077 -0.892,0.155 -0.067,0.015 -0.274,0.094 -0.633,0.24 -1.675,0.654 -2.773,1.596 -3.298,2.82 -0.309,0.683 -0.456,1.386 -0.456,2.095 0,0.686 0.14,1.376 0.418,2.072 0.303,0.775 0.712,1.344 1.228,1.698 C 0.049,4.16 1.175,4.436 2.62,4.436 4.525,4.436 6.097,4.019 7.344,3.191 8.108,2.679 8.512,2.238 8.559,1.869 L 8.67,0.881 8.67,0.129 C 8.728,-0.975 8.561,-1.822 8.182,-2.414 7.847,-2.887 7.488,-3.29 7.092,-3.62"
             style="fill:#60c232;fill-opacity:1;fill-rule:nonzero;stroke:none"
             id="path3488" />
        </g>
        <g
           id="g3490"
           transform="translate(531.0291,114.7621)">
          <path
             d="M 0,0 -0.135,1.488 C -0.468,1.192 -0.9,0.916 -1.438,0.66 l -0.83,-0.222 -0.673,0 c -0.486,-0.025 -0.983,0.048 -1.482,0.216 -1.109,0.369 -1.894,1.267 -2.373,2.701 -0.3,0.878 -0.455,2.142 -0.455,3.782 0,0.299 -0.067,0.791 -0.197,1.475 l -0.2,1.025 c 0,0.236 0.137,0.42 0.416,0.553 0.13,0.051 0.623,0.11 1.477,0.174 l 0.279,0.023 0.194,0 c 0.912,0 1.362,-0.343 1.362,-1.025 0,-0.274 -0.12,-0.812 -0.362,-1.609 l -0.465,-1.514 -0.097,-0.633 0,-0.412 c 0,-0.826 0.192,-1.486 0.579,-1.978 0.388,-0.488 0.883,-0.737 1.507,-0.737 0.904,0 1.689,0.499 2.363,1.494 L -1.034,10.364 2.244,10.64 2.152,0.404 0,0 z"
             style="fill:#60c232;fill-opacity:1;fill-rule:nonzero;stroke:none"
             id="path3492" />
        </g>
        <g
           id="g3494"
           transform="translate(535.2402,130.1378)">
          <path
             d="M 0,0 1.951,-0.668 2.656,-15.055 -0.836,-15.63 0,0 z"
             style="fill:#60c232;fill-opacity:1;fill-rule:nonzero;stroke:none"
             id="path3496" />
        </g>
        <g
           id="g3498"
           transform="translate(182.4895,266.033)">
          <path
             d="m 0,0 0,-19.412 c 0.316,0.06 0.631,0.125 0.953,0.173 13.848,2.121 27.023,-6.929 31.687,-20.844 L 32.64,0 0,0 z"
             style="fill:#60c232;fill-opacity:1;fill-rule:nonzero;stroke:none"
             id="path3500" />
        </g>
        <g
           id="g3502"
           transform="translate(207.21899,187.668)">
          <path
             d="m 0,0 -0.653,-3.095 c 0,0 0.872,-15.767 1.21,-19.814 0.341,-4.051 -0.769,-8.452 -4.144,-9.353 -0.402,-0.111 0.819,-3.934 -3.276,-5.017 0,0 -3.288,-0.377 -5.2,-0.801 -2.964,-0.658 -3.755,3.591 -4.173,3.622 -4.286,0.303 -6.135,2.611 -7.025,6.578 -0.264,1.179 -0.82,3.479 -1.468,6.125 l 0,-28.25 32.639,0 0,63.854 C 6.289,8.226 3.616,3.191 0,0"
             style="fill:#60c232;fill-opacity:1;fill-rule:nonzero;stroke:none"
             id="path3504" />
        </g>
        <g
           id="g3506"
           transform="translate(189.3511,172.7146)">
          <path
             d="M 0,0 C 11.474,2.304 16.741,8.258 16.424,11.491 11.59,5.264 3.017,4.071 -2.501,3.67 -3.505,3.593 -5.355,3.582 -6.862,3.541 -7.031,3.535 -7.199,3.531 -7.358,3.527 L -6.862,0.968 -6.576,-0.51 C -6.289,-0.194 -2.949,-0.594 0,0"
             style="fill:#60c232;fill-opacity:1;fill-rule:nonzero;stroke:none"
             id="path3508" />
        </g>
        <g
           id="g3510"
           transform="translate(195.3701,213.19991)">
          <path
             d="M 0,0 C -0.267,0.117 -0.63,-0.06 -0.887,0.293 -0.409,3.298 1.53,8.817 1.53,8.817 0.203,7.815 -0.704,5.82 -2.174,4.633 -2.418,3.92 -2.52,3.134 -3.162,2.83 -4.468,6.19 -7.764,23.095 -8.355,22.925 -8.077,16.053 -7.353,9.156 -6.276,2.186 -9.494,4.392 -17.441,9.765 -17.367,9.321 -17.649,9.543 -8.241,-0.92 -8.241,-0.92 c 0.18,0.317 -10.48,-2.086 -10.479,-2.359 -0.22,-0.658 12.175,-0.168 12.175,-0.168 l -3.311,-8.151 c 0,0 3.399,3.075 4.834,4.843 1.237,-2.66 5.03,-14.246 5.03,-14.246 0,0 -2.37,12.706 -2.124,15.244 1.742,-0.259 5.974,-0.886 5.974,-0.886 0,0 -3.279,2.938 -4.254,3.435 C 1.49,-1.704 10.174,1 10.174,1 10.174,1 3.388,0.778 0,0"
             style="fill:#60c232;fill-opacity:1;fill-rule:nonzero;stroke:none"
             id="path3512" />
        </g>
        <g
           id="g3514"
           transform="translate(205.03571,174.0356)">
          <path
             d="m 0,0 c -6.353,-3.261 -10.521,-4.368 -15.259,-5.263 -1.856,-0.341 -4.318,-1.023 -6.311,-0.022 l 1.31,-3.75 c 1.902,-0.57 5.234,-0.202 6.257,0.091 C -7.891,-7.193 -4.419,-6.885 0,0"
             style="fill:#60c232;fill-opacity:1;fill-rule:nonzero;stroke:none"
             id="path3516" />
        </g>
        <g
           id="g3518"
           transform="translate(203.43381,165.1414)">
          <path
             d="m 0,0 c -6.078,-3.594 -12.329,-5.644 -17.406,-4.764 l 1.07,-3.403 c 1.757,0.546 3.809,0.091 5.855,0.82 C -6.173,-5.816 -2.129,-4.259 0,0"
             style="fill:#60c232;fill-opacity:1;fill-rule:nonzero;stroke:none"
             id="path3520" />
        </g>
      </g>
    </g>
    <path
       id="path3532"
       style="fill:#0491d1;fill-opacity:1;fill-rule:nonzero;stroke:none"
       d="m 406.62541,529.54954 c -0.82125,-0.0588 -1.56875,-0.38375 -2.1825,-0.90875 l 0.0163,-0.0163 -2.19875,-2.21375 -0.31125,-0.315 -14.6825,-14.80125 1.985,-2.00875 19.64875,19.8625 c -0.72125,0.31375 -1.51375,0.4575 -2.275,0.40125 m -7.41875,0 c -0.82375,-0.0588 -1.57125,-0.38375 -2.1825,-0.90875 l 0.0188,-0.0163 -2.19625,-2.21375 -0.31375,-0.315 -10.96875,-11.05625 1.79875,-1.82125 15.89375,16.0225 c -0.65875,0.25 -1.3675,0.35875 -2.05,0.30875 m -7.41375,0 c -0.82375,-0.0588 -1.57125,-0.38375 -2.185,-0.90875 l 0.0187,-0.0163 -2.19625,-2.21375 -0.31375,-0.315 -7.255,-7.315 1.7975,-1.81625 12.18125,12.27625 c -0.65625,0.25 -1.37125,0.35875 -2.0475,0.30875 m 6.51375,-36.45625 c 0.725,-0.31375 1.5175,-0.4575 2.275,-0.4025 0.82375,0.06 1.57375,0.38375 2.1825,0.90875 l -0.008,0.0175 2.19375,2.2125 0.31125,0.3175 14.68125,14.79875 -1.97875,2.005 -19.6575,-19.8575 z m 9.69125,-0.4025 c 0.82625,0.06 1.575,0.38375 2.1825,0.90875 l -0.015,0.0175 2.20125,2.2125 0.31375,0.3175 10.96875,11.055 -1.80375,1.81875 -15.89,-16.02 c 0.6575,-0.24625 1.3625,-0.36 2.0425,-0.31 m 7.4225,0 c 0.8175,0.06 1.57125,0.38375 2.1825,0.90875 l -0.0225,0.0175 2.2025,2.2125 0.31125,0.3175 7.2525,7.3125 -1.79625,1.82 -12.1775,-12.27875 c 0.65375,-0.24625 1.3675,-0.36 2.0475,-0.31 m 20.8875,16.62125 -18.9875,19.3125 0.0175,0.0163 c -0.315,0.26875 -0.665,0.485 -1.04125,0.64 -0.495,0.175 -1.02125,0.27 -1.54125,0.2775 -0.51625,-0.007 -1.0425,-0.1025 -1.5375,-0.2775 -0.38,-0.155 -0.73,-0.37125 -1.04125,-0.64 l 0.0138,-0.0163 -21.03125,-21.25875 0.85625,-0.865 -0.0163,-0.0163 c 0.31375,-0.26875 1.365,-1.35375 2.5725,-1.325 0.5875,-0.025 1.07125,0.15375 1.4725,0.39 l -0.0138,0.007 12.56375,12.705 0.06,-0.06 c 0.8225,0.82875 2.03375,1.675 3.8975,1.675 1.76625,0 3.7625,-1.2825 4.56875,-2.23125 l 13.86125,-13.87125 -11.46875,-12.06375 c -0.81125,-0.94375 -2.13625,-1.50375 -3.9775,-1.57 -1.30875,-0.0487 -3.01,0.17875 -4.19625,0.90375 -0.795,-0.53625 -1.86625,-0.85625 -3.21875,-0.90375 -1.3075,-0.0487 -3.00875,0.17875 -4.19625,0.90375 -0.79375,-0.53625 -1.87,-0.85625 -3.2225,-0.90375 -1.3725,-0.0512 -3.17375,0.20125 -4.36,1.01 -0.80875,-0.605 -1.9325,-0.95625 -3.37625,-1.01 -0.1625,-0.006 -0.33375,-0.006 -0.51,-0.005 -0.18,-10e-4 -0.35125,-10e-4 -0.515,0.005 -1.84,0.0663 -3.1675,0.62625 -3.9725,1.57 l -18.975,19.29875 1.91,1.92125 18.98875,-19.31375 -0.0175,-0.0175 c 0.31,-0.2675 0.66375,-0.485 1.03625,-0.63875 0.50125,-0.1775 1.025,-0.2725 1.545,-0.27875 0.515,0.006 1.04125,0.10125 1.5425,0.27875 0.37375,0.15375 0.72125,0.37125 1.03875,0.63875 l -0.0175,0.0175 21.0375,21.2575 -0.86625,0.86625 0.02,0.0175 c -0.315,0.26875 -1.365,1.35125 -2.57,1.3225 -1.41375,0.055 -2.28125,-1.05375 -2.59125,-1.3225 l 0.0188,-0.0175 -11,-11.14375 c -0.8025,-0.95 -2.1125,-2.23375 -4.41125,-2.23375 -1.765,0 -3.7575,1.28375 -4.56125,2.23375 l -13.86125,13.8675 11.46625,12.06625 c 0.80625,0.94375 2.13375,1.5025 3.9775,1.57125 1.30875,0.0438 3.0075,-0.18375 4.1925,-0.90625 0.7925,0.5425 1.86875,0.85625 3.2225,0.90625 1.3125,0.0438 3.00875,-0.18375 4.1975,-0.90625 0.79125,0.5425 1.865,0.85625 3.22,0.90625 1.37125,0.05 3.1725,-0.205 4.3625,-1.01375 0.8075,0.60625 1.9275,0.96125 3.3725,1.01375 0.16,0.004 0.33375,0.005 0.51,0.004 0.17625,0.001 0.3475,0 0.52,-0.004 1.835,-0.0688 3.16125,-0.6275 3.9625,-1.57125 l 18.97875,-19.2975 -1.90875,-1.92125 z" />
    <path
       d="m 349.81391,543.78717 c 0.009,0.76625 -0.45625,0.98625 -1.08875,0.98625 l -1.70125,0 -0.065,-0.0113 c -0.035,-0.04 -0.035,-0.0762 -0.035,-0.0762 l 0,-4.92375 c 0,0 0,-0.0838 0.0263,-0.10375 0.03,-0.0237 0.0962,-0.0213 0.0962,-0.0213 l 1.67875,0 c 0.36375,0 0.7275,0.29125 0.7275,0.65375 l 0,0.435 c 0.006,0.21 -0.31625,0.75 -0.74,0.725 l -0.765,0.009 c -0.1275,0 -0.2375,0.1025 -0.2375,0.235 l 0,0.825 c 0,0.13 0.11,0.23375 0.2375,0.23375 l 0.8525,0 c 0.805,0.0487 1.0075,0.5075 1.01375,0.705 l 0,0.32875 z m 0.23375,-1.7825 -0.0413,0 0,-0.0113 -0.007,0 c -0.05,0 -0.0888,-0.0362 -0.0888,-0.0875 0,-0.05 0.0387,-0.0888 0.0888,-0.0888 l 0.21625,0 c 0.725,-0.0825 1.29125,-0.69625 1.29125,-1.44625 l 0,-0.53125 c 0,-0.8025 -0.65,-1.45125 -1.45875,-1.45125 l -5.84375,-0.008 c -0.0363,0 -0.0688,0.0312 -0.0688,0.0713 0,0 -0.002,0.91875 0,0.91875 0,0 -0.007,0.05 0.0263,0.0813 0.0238,0.0137 0.0863,0.0225 0.0863,0.0225 0.27625,0.03 0.7025,0.25 0.7025,0.42875 l 0,4.5725 c -0.007,0.19375 -0.39625,0.38125 -0.7125,0.43125 0,0 -0.0488,0.0175 -0.08,0.05 -0.04,0.0387 -0.0225,0.105 -0.0225,0.105 -0.002,0 0,0.88875 0,0.88875 0,0.0412 0.0325,0.07 0.0688,0.07 l 0.74375,0 c 0.0225,0 0.0462,0.004 0.0675,0.004 l 5.0325,0 c 1.03375,0 1.75375,-1.0025 1.75375,-1.8075 l 0,-0.75375 c 0,-0.805 -0.455,-1.45875 -1.75375,-1.45875"
       style="fill:#231f20;fill-opacity:1;fill-rule:nonzero;stroke:none"
       id="path3536" />
    <path
       id="path3540"
       style="fill:#231f20;fill-opacity:1;fill-rule:nonzero;stroke:none"
       d="m 454.35891,543.78717 c 0.009,0.76625 -0.46375,0.98625 -1.09,0.98625 l -1.7025,0 -0.0612,-0.0113 c -0.04,-0.04 -0.04,-0.0762 -0.04,-0.0762 l 0,-4.92375 c 0,0 0,-0.0838 0.0288,-0.10375 0.03,-0.0237 0.0975,-0.0213 0.0975,-0.0213 l 1.6775,0 c 0.365,0 0.7275,0.29125 0.7275,0.65375 l 0,0.435 c 0.007,0.21 -0.315,0.75 -0.74125,0.725 l -0.765,0.009 c -0.1275,0 -0.23875,0.1025 -0.23875,0.235 l 0,0.825 c 0,0.13 0.11125,0.23375 0.23875,0.23375 l 0.855,0 c 0.8025,0.0487 1.00125,0.5075 1.01375,0.705 l 0,0.32875 z m 0.23,-1.7825 -0.0375,0 0,-0.0113 -0.0138,0 c -0.045,0 -0.0837,-0.0362 -0.0837,-0.0875 0,-0.05 0.0387,-0.0888 0.0837,-0.0888 l 0.22125,0 c 0.725,-0.0825 1.29125,-0.69625 1.29125,-1.44625 l 0,-0.53125 c 0,-0.8025 -0.65375,-1.45125 -1.46125,-1.45125 l -5.8425,-0.008 c -0.0337,0 -0.0725,0.0312 -0.0725,0.0713 l 0,0.91875 c 0,0 0,0.05 0.0337,0.0813 0.015,0.0137 0.0863,0.0225 0.0863,0.0225 0.27,0.03 0.6975,0.25 0.6975,0.42875 l 0,4.5725 c -0.002,0.19375 -0.39125,0.38125 -0.71,0.43125 0,0 -0.0475,0.0175 -0.085,0.05 -0.0288,0.0387 -0.0225,0.105 -0.0225,0.105 l 0,0.88875 c 0,0.0412 0.0387,0.07 0.0725,0.07 l 0.745,0 c 0.0225,0 0.045,0.004 0.0675,0.004 l 5.03,0 c 1.03625,0 1.7575,-1.0025 1.7575,-1.8075 l 0,-0.75375 c 0,-0.805 -0.45625,-1.45875 -1.7575,-1.45875" />
    <path
       d="m 367.43604,538.37579 -2.335,0 c -0.20875,-0.004 -0.2325,0.0113 -0.24,0.235 l 0,0.55125 c 0.007,0.12125 0.2175,0.07 0.2175,0.07 0,0 0.125,0.005 0.19,0.11625 0.0125,0.025 0.035,0.0875 0.035,0.0875 0,0 0.004,0.17125 -0.0925,0.34625 -0.11,0.19625 -0.595,1.00125 -0.80375,1.32625 -0.0263,0.1025 -0.16,0.175 -0.26875,0.175 l -0.0175,0 c -0.10625,0 -0.17875,-0.0812 -0.225,-0.1625 l -0.88,-1.2775 c 0,0 -0.14125,-0.27875 -0.0138,-0.50625 0.0525,-0.0937 0.2275,-0.13 0.275,-0.13 0.1,0 0.1525,-0.0138 0.1525,-0.18875 l 0,-0.46125 c 0,-0.0763 -0.025,-0.18125 -0.1575,-0.18125 l -2.9625,0 c -0.125,0 -0.2325,0.015 -0.2325,0.14375 l 0,0.6025 c 0.009,0.2175 -0.0275,0.25875 0.12875,0.27 0.2725,0.009 0.5425,0.2675 0.5425,0.2675 l 2.085,2.97875 0,2.01 c 0.005,0.105 -0.2325,0.16875 -0.405,0.1975 l -0.195,0.0388 c -0.0375,0 -0.0625,0.0275 -0.0688,0.0612 0,0 -0.004,0 -0.004,10e-4 l 0,0.01 0,0.99875 0,0.009 0.004,0 c 0.006,0.0362 0.0312,0.065 0.0688,0.065 l 3.265,0 c 0.0387,0 0.0637,-0.0288 0.0712,-0.065 l 0,-0.009 0,-0.99875 0,-0.01 c 0,-10e-4 0,-10e-4 -0.002,-10e-4 -0.005,-0.0338 -0.0325,-0.0612 -0.0687,-0.0612 l -0.085,0 c -0.25625,-0.0388 -0.59375,-0.19625 -0.60875,-0.32 l 0,-1.74 1.7075,-2.64125 c 0,0 0.2975,-0.4075 0.39125,-0.51375 0.10625,-0.1225 0.22125,-0.18375 0.31625,-0.21375 l 0.25875,-0.0412 c 0.1975,0.0113 0.19125,-0.0662 0.19125,-0.19625 l 0,-0.6075 c 0.006,-0.21375 -0.0575,-0.23875 -0.23375,-0.235"
       style="fill:#231f20;fill-opacity:1;fill-rule:nonzero;stroke:none"
       id="path3544" />
    <path
       id="path3548"
       style="fill:#231f20;fill-opacity:1;fill-rule:nonzero;stroke:none"
       d="m 440.17393,544.80066 0,-1.585 c 0,-0.13125 -0.105,-0.235 -0.23375,-0.235 l -0.61125,0 c -0.12625,0 -0.23125,0.10375 -0.23125,0.235 l 0,0.30125 c -0.009,0.14 -0.045,0.29375 -0.10125,0.405 -0.15625,0.3125 -0.54625,0.5875 -0.7025,0.64625 -0.3875,0.14375 -0.88375,0.0962 -0.88375,0.0962 l 0,0.004 -0.8075,0 c -0.0913,-0.06 -0.15375,-0.1275 -0.15375,-0.1975 l 0,-4.56125 c 0,-0.1825 0.4175,-0.365 0.73375,-0.4175 0,0 0.0525,0 0.0737,-0.0275 0.0238,-0.0325 0.0163,-0.0737 0.0163,-0.0737 l -0.009,-0.925 c 0,-0.04 -0.0288,-0.0725 -0.0687,-0.0725 l -3.15375,0 c -0.04,0 -0.0688,0.0325 -0.0688,0.0725 l -0.006,0.925 c 0,0 -0.009,0.0412 0.0162,0.0737 0.0188,0.0275 0.0738,0.0275 0.0738,0.0275 0.31625,0.0525 0.7325,0.235 0.7325,0.4175 l 0,4.56125 c 0,0.1775 -0.41625,0.36125 -0.7325,0.41375 0,0 -0.055,-10e-4 -0.0738,0.0325 -0.025,0.03 -0.0162,0.07 -0.0162,0.07 l 0.006,0.9275 c 0,0.0362 0.0288,0.0712 0.0688,0.0712 l 2.5225,0 0.005,0 3.3925,0 c 0.13375,0 0.2375,-0.105 0.2375,-0.235 l 0,-0.84375 c 0,-0.0387 -0.009,-0.075 -0.025,-0.10625" />
    <path
       d="m 416.16205,544.80066 0,-1.585 c 0,-0.13125 -0.105,-0.235 -0.24,-0.235 l -0.60875,0 c -0.12875,0 -0.23625,0.10375 -0.23625,0.235 l 0,0.30125 c -0.007,0.14 -0.04,0.29375 -0.0975,0.405 -0.1525,0.3125 -0.545,0.5875 -0.70625,0.64625 -0.38125,0.14375 -0.885,0.0962 -0.885,0.0962 l 0,0.004 -0.8025,0 c -0.0925,-0.06 -0.15375,-0.1275 -0.15375,-0.1975 l 0,-4.55125 c 0,-0.1775 0.41875,-0.35875 0.73875,-0.41375 0,0 0.0462,0.004 0.0725,-0.03 0.025,-0.0275 0.009,-0.07 0.0138,-0.07 l -0.007,-0.92875 c 0,-0.0388 -0.0325,-0.0662 -0.07,-0.0662 l -3.15125,0 c -0.04,0 -0.0713,0.0275 -0.0713,0.0662 l -0.0125,0.92875 c 0.007,0 0,0.0425 0.0163,0.07 0.0225,0.0338 0.075,0.03 0.075,0.03 0.3225,0.055 0.74,0.23625 0.74,0.41375 l 0,4.55125 c 0,0.1775 -0.4175,0.36125 -0.74,0.41375 0,0 -0.0525,-10e-4 -0.075,0.0325 -0.0163,0.03 -0.009,0.07 -0.0163,0.07 l 0.0125,0.9275 c 0,0.0362 0.0312,0.0712 0.0713,0.0712 l 2.52125,0 0.003,0 3.3975,0 c 0.13,0 0.23375,-0.105 0.23375,-0.235 l 0,-0.84375 c 0,-0.0387 -0.009,-0.075 -0.0213,-0.10625"
       style="fill:#231f20;fill-opacity:1;fill-rule:nonzero;stroke:none"
       id="path3552" />
    <path
       id="path3556"
       style="fill:#231f20;fill-opacity:1;fill-rule:nonzero;stroke:none"
       d="m 444.05105,544.76316 c -0.21125,-0.004 -0.6425,-0.0113 -0.78,-0.035 -0.21875,-0.0425 -0.4925,-0.16 -0.63125,-0.395 -0.11,-0.1875 -0.0575,-0.81625 -0.0688,-1.0275 l 0,-3.39625 c 0,-0.18375 0.41875,-0.365 0.735,-0.4175 0,0 0.0563,0 0.075,-0.0275 0.025,-0.0325 0.009,-0.0737 0.015,-0.0737 l -0.006,-0.925 c 0,-0.04 -0.0337,-0.0725 -0.0675,-0.0725 l -3.46125,0 c -0.0375,0 -0.0688,0.0325 -0.0688,0.0725 l -0.005,0.925 c 0.005,0 -0.0112,0.0412 0.0138,0.0737 0.02,0.0275 0.0738,0.0275 0.0738,0.0275 0.315,0.0525 0.73625,0.23375 0.73625,0.4175 l 0,3.22625 -0.001,0 0,0.6675 c 0,0 -0.015,0.97 0.1575,1.2425 0.43125,0.68 1.08875,1.06 3.04625,1.06 l 0.3825,0 c 1.96125,0 2.7075,-0.38 3.14125,-1.06 0.1725,-0.2725 0.16125,-1.2425 0.16125,-1.2425 l 0,-0.6675 -0.002,0 0,-3.22625 c 0,-0.18375 0.41375,-0.365 0.73375,-0.4175 0,0 0.0525,0 0.0738,-0.0275 0.0213,-0.0325 0.0113,-0.0737 0.0113,-0.0737 l -0.002,-0.925 c 0,-0.04 -0.0337,-0.0725 -0.0738,-0.0725 l -3.45,0 c -0.04,0 -0.0763,0.0325 -0.0763,0.0725 l -0.002,0.925 c 0.002,0 -0.0113,0.0412 0.0113,0.0737 0.0275,0.0275 0.075,0.0275 0.075,0.0275 0.31625,0.0525 0.73375,0.23375 0.73375,0.4175 l 0,3.39625 c -0.0112,0.21125 0.04,0.84 -0.0637,1.0275 -0.13625,0.235 -0.415,0.3525 -0.635,0.395 -0.1375,0.0237 -0.5725,0.0312 -0.78,0.035" />
    <path
       d="m 433.48455,543.86203 c 0,-0.13 -0.105,-0.2375 -0.23625,-0.2375 l -0.6075,0 c -0.13375,0 -0.2375,0.1075 -0.2375,0.2375 l 0,0.0825 c -0.0163,0.33625 -0.425,0.73375 -0.645,0.82125 -0.395,0.155 -0.52625,0.155 -1.08,0.17375 -0.009,0.002 -0.0188,0.002 -0.0275,0.002 l -0.004,-0.002 c -0.5425,-0.0187 -0.6825,-0.0187 -1.0725,-0.17375 -0.22125,-0.0875 -0.655,-0.535 -0.79,-0.8875 -0.0925,-0.27375 -0.22125,-0.6175 -0.22125,-1.75125 0,-1.13625 0.0825,-1.66125 0.22125,-1.88625 0.25,-0.3975 0.6475,-0.80875 1.57625,-0.80875 0.92875,0 1.26125,0.33875 1.4275,0.56125 0,0 0.24625,0.2025 0.265,0.49375 l 0,0.08 c 0,0.13 0.105,0.23625 0.23375,0.23625 l 0.61,0 c 0.1275,0 0.23625,-0.10625 0.23625,-0.23625 l 0.0138,-1.82625 c 0,0 0.0375,-0.13375 -0.12875,-0.265 0,0 -0.87625,-0.2625 -2.34875,-0.24875 -1.22125,0.0113 -2.2225,0.2625 -2.73875,0.59 -0.5175,0.32 -1.4825,1.265 -1.4825,3.19375 0,1.925 0.42125,2.63125 0.9375,3.115 0.4275,0.40375 1.06,0.82 2.34125,0.98 0.0438,0.0338 0.385,0.0562 0.65875,0.0562 0.0925,0.003 0.17875,0.009 0.265,0.0113 0.27,0.006 0.50625,-0.005 0.7125,-0.0287 1.5425,-0.0575 1.90625,-0.22375 1.90625,-0.22375 0.1325,0 0.23125,-0.10375 0.23125,-0.23375 l -0.0163,-1.825 z"
       style="fill:#231f20;fill-opacity:1;fill-rule:nonzero;stroke:none"
       id="path3560" />
    <path
       id="path3564"
       style="fill:#231f20;fill-opacity:1;fill-rule:nonzero;stroke:none"
       d="m 396.7423,543.84328 0.0212,-0.04 -0.0212,-1.825 c 0,-0.12875 -0.1025,-0.23625 -0.23375,-0.23625 l -2.7475,0 c -0.13125,0 -0.235,0.1075 -0.235,0.23625 l 0,0.0825 0,0.6325 0,0.0813 c 0,0.12875 0.10375,0.235 0.235,0.235 l 1.06125,0 0,1.67125 c -0.055,0.0362 -0.10625,0.065 -0.15,0.085 -0.3925,0.155 -0.52875,0.155 -1.08,0.17375 -0.007,0.002 -0.0175,0.002 -0.0263,0.002 l 0,-0.002 c -0.545,-0.0187 -0.6825,-0.0187 -1.07625,-0.17375 -0.22125,-0.0875 -0.65625,-0.535 -0.79125,-0.8875 -0.0913,-0.27375 -0.2175,-0.6175 -0.2175,-1.75125 0,-1.13625 0.0775,-1.66125 0.2175,-1.88625 0.2525,-0.3975 0.65,-0.80875 1.575,-0.80875 0.9275,0 1.26375,0.33875 1.4275,0.56125 0,0 0.25125,0.2025 0.26625,0.49375 l 0,0.08 c 0,0.13 0.1075,0.23625 0.23625,0.23625 l 0.60625,0 c 0.12875,0 0.23375,-0.10625 0.23375,-0.23625 l 0.025,-1.82625 c 0,0 0.0337,-0.13375 -0.1325,-0.265 0,0 -0.87625,-0.2625 -2.35125,-0.24875 -1.22125,0.0113 -2.22,0.2625 -2.73875,0.59 -0.51125,0.32 -1.48375,1.265 -1.48375,3.19375 0,1.925 0.42375,2.63125 0.94125,3.115 0.42375,0.40375 1.06125,0.82 2.34125,0.98 0.0412,0.0338 0.38625,0.0562 0.6575,0.0562 0.0888,0.003 0.175,0.009 0.26375,0.0113 0.2675,0.006 0.50625,-0.005 0.70875,-0.0287 1.54625,-0.0575 2.25375,-0.22375 2.25375,-0.22375 0.1275,0 0.235,-0.10375 0.235,-0.23375 l -0.0212,-1.825 0,-0.0188 z" />
    <path
       d="m 358.06093,543.87841 c -0.13625,0.3525 -0.5675,0.8 -0.79125,0.8875 -0.3825,0.15125 -0.525,0.155 -1.05125,0.17375 -0.52375,-0.0188 -0.665,-0.0225 -1.05,-0.17375 -0.22125,-0.0875 -0.6575,-0.535 -0.78625,-0.8875 -0.0975,-0.27375 -0.2225,-0.6175 -0.2225,-1.7525 0,-1.135 0.08,-1.66 0.2225,-1.885 0.25,-0.3975 0.6475,-0.80875 1.5725,-0.80875 l 0.52875,0 c 1.07375,-0.006 1.32625,0.41125 1.5775,0.80875 0.13875,0.225 0.22125,0.75 0.22125,1.885 0,1.135 -0.12625,1.47875 -0.22125,1.7525 m 0.85375,-5.06125 c -0.495,-0.31125 -1.43625,-0.55875 -2.59375,-0.58875 l 0,-0.001 -0.2025,0 0,0.001 c -1.15625,0.03 -2.09625,0.2775 -2.58875,0.58875 -0.5175,0.32 -1.4875,1.265 -1.4875,3.19375 0,1.925 0.4275,2.63125 0.9425,3.115 0.42125,0.40375 1.0575,0.82 2.3425,0.98 0.04,0.0337 0.385,0.0562 0.65375,0.0562 0.0462,10e-4 0.34,0.006 0.34,0.006 0.05,0 0.75125,-0.0288 0.79,-0.0625 1.28625,-0.16 1.92375,-0.57625 2.3475,-0.98 0.51625,-0.48375 0.94,-1.19 0.94,-3.115 0,-1.92875 -0.97125,-2.87375 -1.48375,-3.19375"
       style="fill:#231f20;fill-opacity:1;fill-rule:nonzero;stroke:none"
       id="path3568" />
    <path
       id="path3572"
       style="fill:#231f20;fill-opacity:1;fill-rule:nonzero;stroke:none"
       d="m 400.84068,544.91303 c -0.0225,-0.0325 -0.075,-0.03 -0.075,-0.03 -0.32,-0.0512 -0.735,-0.23625 -0.735,-0.415 l 0,-1.64 0,-1.205 0,-1.6975 c 0,-0.18 0.415,-0.36375 0.735,-0.41375 0,0 0.0525,0.004 0.075,-0.03 0.0225,-0.0312 0.009,-0.0738 0.0125,-0.0738 l -0.007,-0.92625 c 0,-0.0375 -0.0325,-0.07 -0.0662,-0.07 l -3.155,0 c -0.04,0 -0.0737,0.0325 -0.0737,0.07 l -0.005,0.92625 c 10e-4,0 -0.008,0.0425 0.0125,0.0738 0.0238,0.0338 0.0775,0.03 0.0775,0.03 0.315,0.05 0.73625,0.23375 0.73625,0.41375 l 0,1.6975 0,1.205 0,1.64 c 0,0.17875 -0.42125,0.36375 -0.73625,0.415 0,0 -0.0537,-0.002 -0.0775,0.03 -0.02,0.0325 -0.0113,0.0738 -0.0125,0.0738 l 0.005,0.925 c 0,0.0375 0.0337,0.0687 0.0737,0.0687 l 3.155,0 c 0.0337,0 0.0662,-0.0312 0.0662,-0.0687 l 0.007,-0.925 c -0.004,0 0.01,-0.0412 -0.0125,-0.0738" />
    <path
       d="m 409.60968,544.91303 c -0.025,-0.0325 -0.0712,-0.03 -0.0712,-0.03 -0.32375,-0.0512 -0.74,-0.23625 -0.74,-0.415 l -0.002,-1.03375 c 0,-0.80625 -0.22125,-1.46 -1.51625,-1.46 l -0.045,0 0,-0.0113 -0.007,0 c -0.0487,0 -0.09,-0.0388 -0.09,-0.0875 0,-0.0475 0.0412,-0.0913 0.09,-0.0913 l 0.215,0 c 0.725,-0.0775 1.29125,-0.7525 1.29125,-1.50125 l 0,-0.425 c 0,-0.805 -0.65125,-1.45625 -1.45375,-1.45625 l -3.15875,10e-4 0,0.009 -2.67,0 c -0.0387,0 -0.0712,0.0325 -0.0712,0.07 l -0.01,0.92625 c 0.005,0 -0.009,0.0425 0.0213,0.0738 0.015,0.0338 0.0675,0.03 0.0675,0.03 0.32,0.05 0.7375,0.23375 0.7375,0.41375 l 0,1.6975 0,1.205 0,1.64 c 0,0.17875 -0.4175,0.36375 -0.7375,0.415 0,0 -0.0525,-0.002 -0.0675,0.03 -0.03,0.0325 -0.0163,0.0738 -0.0213,0.0738 l 0.01,0.925 c 0,0.0375 0.0325,0.0687 0.0712,0.0687 l 3.1475,0 c 0.0475,0 0.0762,-0.0312 0.0762,-0.0687 l 0.005,-0.925 c -0.005,0 0.0113,-0.0412 -0.015,-0.0738 -0.0188,-0.0325 -0.075,-0.03 -0.075,-0.03 -0.315,-0.0512 -0.7325,-0.23625 -0.7325,-0.415 l 0,-1.64 0,-1.205 0,-1.6975 c 0,-0.0963 0.11875,-0.19625 0.2825,-0.27 l 1.815,0 c 0.3625,0 0.72875,0.2925 0.72875,0.65125 l 0,0.32875 c 0.002,0.20875 -0.31125,0.81625 -0.74,0.785 l -0.0288,0.01 -1.095,0 c -0.12625,0 -0.23125,0.105 -0.23125,0.23375 l 0,0.82375 c 0,0.13125 0.105,0.235 0.23125,0.235 l 1.2075,0 c 0.80625,0.0512 0.7725,0.5075 0.78,0.70625 l -0.015,2.13 c 0,0 0.002,0.1575 0.0288,0.24375 0.0462,0.16 0.32875,0.1775 0.32875,0.1775 l 2.39625,0 c 0.0387,0 0.0662,-0.0312 0.0662,-0.0687 l 0.0113,-0.925 c 0,0 0.009,-0.0412 -0.0138,-0.0738"
       style="fill:#231f20;fill-opacity:1;fill-rule:nonzero;stroke:none"
       id="path3576" />
    <path
       id="path3580"
       style="fill:#231f20;fill-opacity:1;fill-rule:nonzero;stroke:none"
       d="m 369.03706,542.33128 c 0.61875,0.19 1.68,0.5 2.41375,0.62 0.735,0.1175 1.06125,0.47 0.94375,1.11625 -0.1175,0.63875 -0.8525,0.765 -1.24125,0.77375 0,0 -0.94125,0.05 -1.325,-0.0975 -0.15375,-0.0575 -0.59375,-0.55875 -0.6725,-0.69625 l -0.1525,-0.37875 c 0,-0.06 -0.085,-0.125 -0.21375,-0.125 l -0.67125,0 c -0.13125,0 -0.17375,0 -0.17375,0.125 l 0.005,1.4725 0,0.65 c 0,0.20125 0.30625,0.25125 1.14875,0.25125 l 2.24625,0 c 0,0 0.9525,0.0325 1.66625,-0.385 0.58125,-0.34 1.0875,-1.265 1.06,-1.94375 -0.045,-1.09 -0.11625,-1.67625 -0.7325,-2.0575 -0.5475,-0.3425 -1.68125,-0.50375 -2.41625,-0.6225 -0.7375,-0.115 -1.3525,-0.23125 -1.3525,-0.88125 0,-0.64625 0.85125,-0.7625 1.23875,-0.775 0,0 0.49625,-0.0425 0.88125,0.0987 0.1575,0.0588 0.305,0.11125 0.5275,0.3825 0.1075,0.13375 0.27875,0.56125 0.27875,0.56125 0,0.13 0.1025,0.23875 0.23375,0.23875 l 0.61125,0 c 0.18625,0.0213 0.2375,-0.03 0.23125,-0.23875 l -0.002,-1.9625 c 0,-0.135 -0.7625,-0.12625 -1.145,-0.12625 l -2.48375,0 c 0,0 -0.85375,0.006 -1.3725,0.49875 -0.3825,0.36125 -0.76625,1.06 -0.73625,1.73625 0.0275,0.67625 0.145,1.44375 1.205,1.765" />
    <path
       d="m 417.72431,542.33128 c 0.615,0.19 1.67375,0.5 2.41375,0.62 0.73375,0.1175 1.05875,0.47 0.9375,1.11625 -0.1125,0.63875 -0.85,0.765 -1.24,0.77375 0,0 -0.935,0.05 -1.32,-0.0975 -0.1575,-0.0575 -0.5975,-0.55875 -0.67625,-0.69625 l -0.1525,-0.37875 c 0,-0.06 -0.0813,-0.125 -0.21,-0.125 l -0.6725,0 c -0.1325,0 -0.17125,0 -0.17125,0.125 l 0,1.4725 0,0.65 c 0,0.20125 0.30625,0.25125 1.14875,0.25125 l 2.24375,0 c 0,0 0.96125,0.0325 1.67,-0.385 0.58125,-0.34 1.0925,-1.265 1.06,-1.94375 -0.045,-1.09 -0.1175,-1.67625 -0.7375,-2.0575 -0.5525,-0.3425 -1.67375,-0.50375 -2.41375,-0.6225 -0.7325,-0.115 -1.34875,-0.23125 -1.34875,-0.88125 0,-0.64625 0.8475,-0.7625 1.235,-0.775 0,0 0.5025,-0.0425 0.885,0.0987 0.1525,0.0588 0.30625,0.11125 0.52625,0.3825 0.105,0.13375 0.2775,0.56125 0.2775,0.56125 0,0.13 0.1075,0.23875 0.23375,0.23875 l 0.61125,0 c 0.1875,0.0213 0.24,-0.03 0.235,-0.23875 l 0,-1.9625 c 0,-0.135 -0.77,-0.12625 -1.14875,-0.12625 l -2.48375,0 c 0,0 -0.85625,0.006 -1.375,0.49875 -0.37875,0.36125 -0.76375,1.06 -0.735,1.73625 0.0263,0.67625 0.14,1.44375 1.2075,1.765"
       style="fill:#231f20;fill-opacity:1;fill-rule:nonzero;stroke:none"
       id="path3584" />
    <path
       id="path3588"
       style="fill:#231f20;fill-opacity:1;fill-rule:nonzero;stroke:none"
       d="m 458.04305,542.33128 c 0.61625,0.19 1.6775,0.5 2.41,0.62 0.73875,0.1175 1.0675,0.47 0.9475,1.11625 -0.12125,0.63875 -0.8525,0.765 -1.2425,0.77375 0,0 -0.935,0.05 -1.3225,-0.0975 -0.1575,-0.0575 -0.595,-0.55875 -0.67375,-0.69625 l -0.15375,-0.37875 c 0,-0.06 -0.0813,-0.125 -0.2125,-0.125 l -0.67125,0 c -0.13,0 -0.17375,0 -0.17375,0.125 l 0.005,1.4725 0,0.65 c 0,0.20125 0.30625,0.25125 1.1475,0.25125 l 2.24375,0 c 0,0 0.95625,0.0325 1.6725,-0.385 0.58,-0.34 1.09125,-1.265 1.05875,-1.94375 -0.0475,-1.09 -0.1175,-1.67625 -0.73625,-2.0575 -0.5475,-0.3425 -1.675,-0.50375 -2.41375,-0.6225 -0.735,-0.115 -1.355,-0.23125 -1.355,-0.88125 0,-0.64625 0.855,-0.7625 1.24,-0.775 0,0 0.5,-0.0425 0.88375,0.0987 0.1625,0.0588 0.30375,0.11125 0.5275,0.3825 0.10875,0.13375 0.2775,0.56125 0.2775,0.56125 0,0.13 0.1075,0.23875 0.23375,0.23875 l 0.61125,0 c 0.18375,0.0213 0.23875,-0.03 0.23125,-0.23875 l -0.002,-1.9625 c 0,-0.135 -0.76375,-0.12625 -1.14375,-0.12625 l -2.4825,0 c 0,0 -0.85375,0.006 -1.375,0.49875 -0.3825,0.36125 -0.76625,1.06 -0.7375,1.73625 0.0325,0.67625 0.15,1.44375 1.20625,1.765" />
    <path
       d="m 381.22319,545.01128 c -1.68,-0.0312 -1.9375,-0.6175 -1.9375,-1.5525 0,-0.4175 0.2,-0.81375 0.5475,-1.12375 l 2.965,2.3875 c -0.31125,0.19375 -0.94875,0.29875 -1.575,0.28875 m -0.3825,-5.71 c 0.705,0.03 1.09,0.35375 1.09,0.70625 0,0.4125 -0.93875,0.795 -1.17625,0.795 -0.0387,0 -0.0913,-0.0137 -0.15,-0.0275 -0.0975,-0.06 -0.2275,-0.10625 -0.3275,-0.13125 -0.29375,-0.15 -0.605,-0.3875 -0.605,-0.63625 0,-0.3525 0.4625,-0.73625 1.16875,-0.70625 m 5.79625,6.1025 c -0.0575,-0.0925 -0.1475,-0.0612 -0.3225,-0.0925 -0.17875,-0.0288 -0.2925,-0.1175 -0.2925,-0.1175 l -0.92125,-0.6525 c 0.125,-0.23375 0.2225,-0.475 0.30125,-0.64875 0.1225,-0.2675 0.1775,-1.1175 0.1775,-1.41375 0,-0.29375 0.065,-0.81 -0.035,-0.89875 -0.0325,-0.0213 -0.14875,-0.0412 -0.14875,-0.0412 l -1.26125,0 c 0,0 -0.07,0.0137 -0.11375,0.0575 -0.035,0.0362 -0.0337,0.2075 -0.0337,0.2075 0,0 -0.0113,0.4125 0,0.61625 0.03,0.3875 -0.0675,0.74 -0.1975,1.03375 l -1.85875,-1.5475 c 1.02,-0.3875 1.69125,-1.2525 1.675,-1.89875 -0.0275,-1.26625 -1.15875,-1.76875 -2.765,-1.795 -1.795,-0.0288 -3.00375,0.6675 -3.00375,1.795 0,0.32375 0.0925,0.61875 0.24375,0.875 -0.002,0.01 -0.006,0.0275 -0.006,0.0362 l 0.07,0.055 c 0.11375,0.1675 0.26125,0.32125 0.43625,0.455 -0.79875,0.5575 -1.28375,1.33875 -1.28375,2.16875 0,1.56625 0.71875,2.6475 3.75,2.7375 1.08875,0.0312 2.125,-0.23375 2.90125,-0.68875 l 0.30625,0.13625 c 0.1225,0.105 0.22625,0.22875 0.47875,0.23625 l 1.73,-0.008 c 0.1275,0 0.20125,-0.0387 0.20125,-0.16875 l 0,-0.0975 c 0,0 0.015,-0.28375 -0.0275,-0.34125"
       style="fill:#231f20;fill-opacity:1;fill-rule:nonzero;stroke:none"
       id="path3592" />
    <path
       id="path3596"
       style="fill:#231f20;fill-opacity:1;fill-rule:nonzero;stroke:none"
       d="m 393.41643,549.66666 c 0,0 -0.0663,0 -0.095,0.0275 -0.025,0.03 -0.0587,0.11 -0.0587,0.11" />
    <path
       d="m 381.60706,553.93592 c -0.1025,0.27 -0.4375,0.61375 -0.605,0.68375 -0.2975,0.11875 -0.40625,0.12125 -0.80875,0.13375 -0.405,-0.0125 -0.51625,-0.015 -0.81375,-0.13375 -0.16875,-0.07 -0.50375,-0.41375 -0.60625,-0.68375 -0.0738,-0.21125 -0.1675,-0.47625 -0.1675,-1.35 0,-0.8725 0.06,-1.275 0.1675,-1.44875 0.1925,-0.305 0.5,-0.62625 1.21375,-0.62625 0.0437,0 0.0863,0.004 0.125,0.005 l 0,0.0113 c 0.0225,-0.001 0.0525,-0.001 0.0813,-0.004 0.0238,0.002 0.055,0.002 0.0762,0.004 l 0,-0.0113 c 0.04,-0.001 0.0838,-0.005 0.12875,-0.005 0.7075,0 1.01625,0.32125 1.20875,0.62625 0.11125,0.17375 0.16875,0.57625 0.16875,1.44875 0,0.87375 -0.0937,1.13875 -0.16875,1.35 m 0.65875,-3.8975 c -0.38125,-0.24 -1.1075,-0.42875 -1.99625,-0.4525 l 0,-10e-4 c -0.0125,0 -0.03,-0.002 -0.0475,0 l -0.0288,0 -0.04,0 c -0.01,-0.002 -0.025,0 -0.0412,0 l 0,10e-4 c -0.89125,0.0237 -1.615,0.2125 -1.9975,0.4525 -0.39375,0.2475 -1.1425,0.97125 -1.1425,2.4575 0,1.485 0.3275,2.0325 0.72375,2.40125 0.3275,0.31 0.8175,0.63 1.8075,0.755 0.0312,0.03 0.2925,0.0438 0.505,0.0438 0.0337,0.002 0.0662,0.004 0.10375,0.004 l 0,0.003 c 0.0175,0 0.0362,0 0.0537,-0.001 l 0.0275,0 0.0188,0 c 0.02,0.001 0.0387,0.001 0.0575,0.001 l 0,-0.003 c 0.0337,0 0.0713,-10e-4 0.1025,-0.004 0.21125,0 0.47625,-0.0138 0.50625,-0.0438 0.99,-0.125 1.48,-0.445 1.805,-0.755 0.39625,-0.36875 0.725,-0.91625 0.725,-2.40125 0,-1.48625 -0.74625,-2.21 -1.1425,-2.4575"
       style="fill:#231f20;fill-opacity:1;fill-rule:nonzero;stroke:none"
       id="path3600" />
    <path
       id="path3604"
       style="fill:#231f20;fill-opacity:1;fill-rule:nonzero;stroke:none"
       d="m 419.35343,554.66378 c -0.0188,-0.0213 -0.0575,-0.0213 -0.0575,-0.0213 -0.24,-0.04 -0.56375,-0.185 -0.56375,-0.32 l 0,-1.26375 0,-0.92625 0,-1.3075 c 0,-0.1425 0.32375,-0.28 0.56375,-0.3175 0,0 0.0387,10e-4 0.0575,-0.0263 0.0225,-0.0237 0.0137,-0.055 0.0162,-0.055 l -0.007,-0.7125 c 0,-0.03 -0.0275,-0.0562 -0.055,-0.0562 l -2.42875,0 c -0.03,0 -0.0525,0.0263 -0.0525,0.0562 l -0.009,0.7125 c 0,0 -0.003,0.0312 0.0162,0.055 0.015,0.0275 0.0525,0.0263 0.0525,0.0263 0.24875,0.0375 0.56375,0.175 0.56375,0.3175 l 0,1.3075 0,0.92625 0,1.26375 c 0,0.135 -0.315,0.28 -0.56375,0.32 0,0 -0.0375,0 -0.0525,0.0213 -0.0188,0.0275 -0.0162,0.0588 -0.0162,0.0588 l 0.009,0.71 c 0,0.03 0.0225,0.0525 0.0525,0.0525 l 2.42875,0 c 0.0275,0 0.055,-0.0225 0.055,-0.0525 l 0.007,-0.71 c -0.002,0 0.006,-0.0312 -0.0162,-0.0588" />
    <path
       d="m 416.4803,554.66378 c -0.0213,-0.0213 -0.0588,-0.02 -0.0588,-0.02 -0.24625,-0.0412 -0.565,-0.1825 -0.565,-0.32125 l -0.006,-0.79625 c 0,-0.6175 -0.1675,-1.12125 -1.165,-1.12125 l -0.0337,0 0,-0.009 -0.004,0 c -0.0425,0 -0.0687,-0.03 -0.0687,-0.0687 0,-0.0375 0.0263,-0.0675 0.0687,-0.0675 l 0.1625,0 c 0.56,-0.065 0.99625,-0.58375 0.99625,-1.1575 l 0,-0.32625 c 0,-0.62 -0.50375,-1.12125 -1.12125,-1.12125 l -2.43125,0 0,0.006 -2.0575,0 c -0.0312,0 -0.0525,0.0225 -0.0525,0.0537 l -0.005,0.71375 c 0,0 -0.0113,0.0288 0.007,0.055 0.0188,0.025 0.0587,0.025 0.0587,0.025 0.245,0.0362 0.565,0.17625 0.565,0.31875 l 0,1.30625 0,0.92875 0,1.26 c 0,0.13875 -0.32,0.28 -0.565,0.32125 0,0 -0.04,-10e-4 -0.0587,0.02 -0.0188,0.0288 -0.007,0.0588 -0.007,0.0588 l 0.005,0.71125 c 0,0.0312 0.0213,0.0562 0.0525,0.0562 l 2.42875,0 c 0.0288,0 0.055,-0.025 0.055,-0.0562 l 0.006,-0.71125 c 0,0 0.008,-0.03 -0.0125,-0.0588 -0.0188,-0.0213 -0.0562,-0.02 -0.0562,-0.02 -0.24875,-0.0412 -0.57125,-0.1825 -0.57125,-0.32125 l 0,-1.26 0,-0.92875 0,-1.30625 c 0,-0.0775 0.0913,-0.14875 0.22,-0.20875 l 1.40375,0 c 0.27375,0 0.55625,0.22 0.55625,0.50375 l 0,0.2525 c 0.002,0.15875 -0.2425,0.6225 -0.57125,0.60375 l -0.0225,0.005 -0.83875,0 c -0.1,0 -0.1825,0.0825 -0.1825,0.1775 l 0,0.64 c 0,0.0975 0.0825,0.18 0.1825,0.18 l 0.93,0 c 0.61875,0.0388 0.59375,0.38875 0.5975,0.54125 l -0.0113,1.6425 c 0,0 0,0.12 0.0213,0.1875 0.0337,0.125 0.25875,0.1375 0.25875,0.1375 l 1.84,0 c 0.0288,0 0.0537,-0.025 0.0537,-0.0562 l 0.006,-0.71125 c -10e-4,0 0.006,-0.03 -0.01,-0.0588"
       style="fill:#231f20;fill-opacity:1;fill-rule:nonzero;stroke:none"
       id="path3608" />
    <path
       id="path3612"
       style="fill:#231f20;fill-opacity:1;fill-rule:nonzero;stroke:none"
       d="m 409.89169,553.8399 c 0,-0.0975 -0.0825,-0.17625 -0.18125,-0.17625 l -0.4675,0 c -0.10375,0 -0.18375,0.0788 -0.18375,0.17625 l -0.10875,0.295 c -0.009,0.1025 -0.1325,0.16625 -0.17875,0.25 -0.1175,0.2425 -2.29375,0.0937 -2.29375,0.0937 -0.0725,-0.0488 -0.115,-0.1025 -0.115,-0.15625 l 0,-1.50375 1.78875,0 c 0.11,0 0.2225,0.13375 0.2525,0.32875 0,0 0,0.0325 0.02,0.0425 0.0163,0.0163 0.045,0.0113 0.045,0.0113 l 0.56125,-0.006 c 0.0263,0 0.0437,-0.0187 0.0437,-0.0437 l 0,-1.28375 0,-0.4425 c 0,-0.0275 -0.0175,-0.0438 -0.0437,-0.0438 l -0.56125,-0.005 c 0,0 -0.0288,-0.005 -0.045,0.01 -0.02,0.0113 -0.02,0.0413 -0.02,0.0413 -0.03,0.1975 -0.1425,0.335 -0.2525,0.335 l -1.78875,0 0,-0.94125 0.01,-0.1825 c 0.0475,-0.0725 0.1575,-0.0488 0.1575,-0.0488 0,0 1.35875,0 1.67875,0.0213 0.15375,0.01 0.4675,-0.01 0.53625,0.10875 0.0537,0.08 0.0788,0.185 0.0788,0.185 0,0.0987 0.0825,0.1825 0.17875,0.1825 l 0.47375,0 c 0.0962,0 0.1775,-0.0838 0.1775,-0.1825 l 0.0225,-1.07 c 0,-0.0987 -0.0863,-0.18 -0.1825,-0.18 l -2.56625,0 -2.4225,0 c -0.0288,0 -0.055,0.0263 -0.055,0.055 l -0.005,0.71125 c 0,0 -0.002,0.0325 0.0138,0.0562 0.0175,0.025 0.0537,0.0237 0.0537,0.0237 0.24625,0.04 0.5675,0.18125 0.5675,0.32 l 0,3.50125 c 0,0.135 -0.32125,0.28 -0.5675,0.32125 0,0 -0.0362,-0.001 -0.0537,0.02 -0.0163,0.0275 -0.0138,0.0588 -0.0138,0.0588 l 0.005,0.71 c 0,0.0312 0.0263,0.055 0.055,0.055 l 1.945,0 0.005,0.003 3.27375,0 c 0.10125,0 0.17875,-0.0813 0.17875,-0.18 l -0.0163,-1.47 z" />
    <path
       d="m 388.58306,549.65491 -2.325,0 -2.425,0 c -0.0288,0 -0.055,0.0263 -0.055,0.055 l -0.006,0.71125 c 0.002,0 -0.005,0.0325 0.0138,0.0562 0.015,0.025 0.055,0.0238 0.055,0.0238 0.2475,0.04 0.56375,0.18125 0.56375,0.31875 l 0,3.5025 c 0,0.135 -0.31625,0.28 -0.56375,0.32125 0,0 -0.04,-10e-4 -0.055,0.02 -0.0188,0.0275 -0.0113,0.0588 -0.0138,0.0588 l 0.006,0.71 c 0,0.0312 0.0263,0.055 0.055,0.055 l 1.94,0 c 0,0 0.004,0.003 0.006,0.003 l 0,-0.005 0.47875,0 c 0.0312,0 0.0562,-0.0225 0.0562,-0.0525 l 0.004,-0.71 c -0.001,0 0.007,-0.0312 -0.01,-0.0588 -0.0187,-0.0213 -0.055,-0.0213 -0.055,-0.0213 -0.1575,-0.0262 -0.3425,-0.0937 -0.45625,-0.1725 -0.015,-0.009 -0.0238,-0.0163 -0.0362,-0.0263 -0.006,-0.005 -0.009,-0.006 -0.0113,-0.01 -0.0113,-0.008 -0.0175,-0.02 -0.0288,-0.03 0,-10e-4 0,-10e-4 -0.005,-0.004 -0.007,-0.01 -0.0138,-0.0225 -0.0225,-0.0375 l 0,-0.004 c -0.001,-0.0137 -0.006,-0.0237 -0.006,-0.0362 l 0,-1.50375 1.60625,0 c 0.11,0 0.22125,0.13375 0.2525,0.32875 0,0 0,0.0325 0.0188,0.0425 0.0213,0.015 0.045,0.0113 0.045,0.0113 l 0.56375,-0.006 c 0.0225,0 0.045,-0.0187 0.045,-0.0437 l 0,-1.1675 0,-0.4425 c 0,-0.025 -0.0225,-0.0425 -0.045,-0.0425 l -0.56375,-0.002 c 0,0 -0.0238,-0.006 -0.045,0.006 -0.0188,0.0125 -0.0188,0.0475 -0.0188,0.0475 -0.0312,0.19375 -0.1425,0.3275 -0.2525,0.3275 l -1.60625,0 0,-1.0575 0.006,-0.18125 c 0.0537,-0.0725 0.16625,-0.0487 0.16625,-0.0487 0,0 1.12,0 1.43625,0.0212 0.1525,0.01 0.47125,-0.0112 0.545,0.10875 0.0475,0.08 0.0763,0.185 0.0763,0.185 0,0.0987 0.0787,0.1825 0.18125,0.1825 l 0.4675,0 c 0.1,0 0.18125,-0.0838 0.18125,-0.1825 l 0.015,-1.07 c 0,-0.0988 -0.0763,-0.18 -0.17875,-0.18"
       style="fill:#231f20;fill-opacity:1;fill-rule:nonzero;stroke:none"
       id="path3616" />
    <path
       id="path3620"
       style="fill:#231f20;fill-opacity:1;fill-rule:nonzero;stroke:none"
       d="m 394.21456,552.40515 c -0.0163,0.0338 -0.0975,0.0188 -0.0975,0.0188 l -0.85375,0 c 0,0 -0.0588,0.009 -0.0888,-0.0113 -0.0225,-0.0163 0.025,-0.0975 0.025,-0.0975 l 0.4975,-1.3075 0.48875,1.27 c 0,0 0.04,0.095 0.0288,0.1275 m 9.89375,2.3175 c 0,0 0.007,-0.0325 -0.009,-0.0587 -0.0188,-0.0213 -0.055,-0.0213 -0.055,-0.0213 -0.24375,-0.04 -0.56875,-0.185 -0.56875,-0.32 l -0.72,-3.4975 c 0,-0.1425 0.1325,-0.28 0.38125,-0.31875 0,0 0.0412,0.002 0.055,-0.025 0.0238,-0.0238 0.006,-0.055 0.0125,-0.055 l -0.006,-0.7125 c 0,-0.03 -0.0213,-0.0562 -0.0563,-0.0562 l -1.80375,0 c 0,0 -0.19125,-0.0163 -0.25125,0.0225 -0.0563,0.0362 -0.115,0.19625 -0.115,0.19625 l -0.3925,1.215 c 0,0 -0.2375,0.78375 -0.29625,0.78375 -0.0575,0 -0.255,-0.745 -0.255,-0.745 l -0.39125,-1.15625 c 0,0 -0.0762,-0.22 -0.155,-0.27625 -0.0838,-0.0562 -0.29875,-0.04 -0.29875,-0.04 l -1.80375,0 c -0.0263,0 -0.0525,0.0263 -0.0525,0.0562 l -0.005,0.7125 c 0,0 -0.009,0.0312 0.01,0.055 0.0175,0.0275 0.0563,0.025 0.0563,0.025 0.2475,0.0388 0.38125,0.17625 0.38125,0.31875 l -0.72125,3.4975 c -0.03,0.13875 -0.0925,0.2075 -0.22,0.2075 -0.105,0 -0.14125,-0.06 -0.21625,-0.2075 l -1.79,-4.5175 c 0,0 -0.0263,-0.0813 -0.0575,-0.11 -0.0288,-0.0288 -0.0875,-0.0288 -0.0875,-0.0288 l -1.61125,0 c 0,0 -0.0688,0 -0.095,0.0288 -0.0312,0.0287 -0.0575,0.11 -0.0575,0.11 l -1.79125,4.5175 c 0,0.135 -0.32125,0.28 -0.56375,0.32 0,0 -0.04,0 -0.0575,0.0213 -0.0163,0.0263 -0.007,0.0587 -0.007,0.0587 l 0.002,0.71 c 0,0.03 0.0225,0.0525 0.0525,0.0525 l 2.30875,0 c 0.035,0 0.0562,-0.0225 0.0562,-0.0525 l 0.005,-0.71 c 0,0 0.007,-0.0325 -0.0112,-0.0587 -0.015,-0.0213 -0.0538,-0.0213 -0.0538,-0.0213 -0.245,-0.04 -0.49,-0.11875 -0.4475,-0.32 l 0.36,-0.9175 1.85875,0 0.355,0.9175 c 0.0875,0.15625 -0.0863,0.28 -0.33375,0.32 0,0 -0.0387,0 -0.0562,0.0213 -0.015,0.0263 -0.006,0.0587 -0.0125,0.0587 l 0,0.71 c 0,0.03 0.025,0.0525 0.055,0.0525 l 4.01,0 c 0.0275,0 0.0488,-0.0225 0.0488,-0.0525 l 0,-0.71 c 0,0 0.006,-0.0325 -0.009,-0.0587 -0.0175,-0.0213 -0.0562,-0.0213 -0.0562,-0.0213 -0.24625,-0.04 -0.29875,-0.185 -0.29875,-0.32 l 0.325,-2.4675 c 0,0 0,-0.235 0.065,-0.235 0.0525,0 0.155,0.37375 0.155,0.37375 l 0.48875,1.74875 c 0,0 0.08,0.17375 0.13875,0.23 0.0613,0.0638 0.2775,0.13875 0.2775,0.13875 l 0.4075,0 0.33375,0 c 0,0 0.08,0 0.175,-0.075 0.1,-0.0812 0.2,-0.35375 0.2,-0.35375 l 0.54875,-1.90375 c 0,0 0.0387,-0.175 0.0937,-0.175 0.0813,0 0.1,0.25125 0.1,0.25125 l 0.33125,2.4675 c 0,0.135 -0.055,0.28 -0.3025,0.32 0,0 -0.045,0 -0.0525,0.0213 -0.0225,0.0263 -0.0138,0.0587 -0.0138,0.0587 l -0.0175,0.71 c 0,0.03 0.0225,0.0525 0.055,0.0525 l 2.43375,0 c 0.03,0 0.0513,-0.0225 0.0513,-0.0525 l -0.0125,-0.71 z" />
    <path
       d="m 427.20719,552.40515 c -0.0163,0.0338 -0.095,0.0188 -0.095,0.0188 l -0.85,0 c 0,0 -0.06,0.009 -0.0925,-0.0113 -0.0213,-0.0163 0.02,-0.0975 0.02,-0.0975 l 0.50375,-1.3075 0.485,1.27 c 0,0 0.0387,0.095 0.0288,0.1275 m 3.0175,2.25875 c -0.0137,-0.0213 -0.055,-0.0213 -0.055,-0.0213 -0.245,-0.04 -0.56375,-0.185 -0.56375,-0.32 l -1.7875,-4.5175 c 0,0 -0.035,-0.0813 -0.0575,-0.11 -0.035,-0.0288 -0.0925,-0.0288 -0.0925,-0.0288 l -1.60875,0 c 0,0 -0.0675,0 -0.1,0.0288 -0.0275,0.0287 -0.0537,0.11 -0.0537,0.11 l -1.53375,3.8625 c 0,0 -0.29875,0.74875 -0.75625,0.87625 -0.35625,0.1 -0.59,0.12 -1.01,0.135 l -0.02,0 c -0.42375,-0.015 -0.52875,-0.015 -0.83,-0.135 -0.17,-0.065 -0.50875,-0.40875 -0.6125,-0.6825 -0.0725,-0.20875 -0.165,-0.47625 -0.165,-1.3475 0,-0.8725 0.0613,-1.27625 0.165,-1.45 0.19625,-0.30375 0.49875,-0.625 1.2175,-0.625 0.7175,0 0.97,0.26 1.09875,0.4325 0,0 0.19,0.1575 0.205,0.38 l 0,0.0612 c 0,0.0987 0.08,0.18375 0.17625,0.18375 l 0.47125,0 c 0.1,0 0.18,-0.085 0.18,-0.18375 l 0.02,-1.40625 c 0,0 0.0225,-0.10125 -0.1025,-0.20375 0,0 -0.68125,-0.2025 -1.81375,-0.1925 -0.9375,0.01 -1.70625,0.205 -2.1075,0.45375 -0.39375,0.24875 -1.14625,0.975 -1.14625,2.46 0,1.48375 0.3325,2.0275 0.7275,2.40125 0.33,0.30625 0.70125,0.525 1.55875,0.64 0.0325,0.0275 0.54125,0.0387 0.74875,0.0387 0.0713,0 0.13625,0.005 0.20875,0.006 0.2075,0.004 0.38625,-0.002 0.545,-0.02 0.69625,-0.0263 1.07875,0.0375 1.27875,-0.005 l 1.4475,0 c 0.0212,0 0.0525,-0.0225 0.0525,-0.0525 l 0.004,-0.71 c -0.004,0 0.005,-0.0325 -0.015,-0.0587 -0.0138,-0.0213 -0.0563,-0.0213 -0.0563,-0.0213 -0.24375,-0.04 -0.4925,-0.11875 -0.4475,-0.32 l 0.36375,-0.9175 1.8575,0 0.35375,0.9175 c 0.09,0.15625 -0.0837,0.28 -0.32875,0.32 0,0 -0.04,0 -0.0575,0.0213 -0.0188,0.0263 -0.01,0.0587 -0.01,0.0587 l 0.002,0.71 c 0,0.03 0.0288,0.0525 0.06,0.0525 l 2.54375,0 c 0.0288,0 0.0525,-0.0225 0.0525,-0.0525 l 0.006,-0.71 c 0,0 0.002,-0.0325 -0.0138,-0.0587"
       style="fill:#231f20;fill-opacity:1;fill-rule:nonzero;stroke:none"
       id="path3624" />
    <g
       id="g3654"
       transform="matrix(1.25,0,0,-1.25,-2.3823092,1027.8434)">
      <g
         id="g3656"
         clip-path="url(#clipPath3658)" />
    </g>
  </g>
</svg>
